<?xml version="1.0" standalone="no"?>
<!DOCTYPE svg PUBLIC "-//W3C//DTD SVG 20010904//EN"
 "http://www.w3.org/TR/2001/REC-SVG-20010904/DTD/svg10.dtd">
<svg version="1.0" xmlns="http://www.w3.org/2000/svg"
 width="626.000000pt" height="626.000000pt" viewBox="0 0 626.000000 626.000000"
 preserveAspectRatio="xMidYMid meet">

<g transform="translate(0.000000,626.000000) scale(0.100000,-0.100000)"
fill="#000000" stroke="none">
<path d="M2849 5950 c-31 -32 -67 -81 -79 -107 -13 -26 -24 -49 -24 -50 -1 -1
-57 14 -126 32 -68 19 -125 33 -127 32 -1 -1 -51 -128 -112 -281 l-110 -278
152 -191 c83 -106 171 -218 195 -249 25 -32 48 -58 51 -58 3 0 209 -38 456
-84 248 -47 453 -82 456 -78 3 4 59 132 125 286 l118 278 -39 37 c-22 20 -77
70 -122 112 l-82 75 24 49 c29 57 29 57 9 144 -23 103 -25 105 -119 92 -44 -6
-119 -20 -166 -32 l-85 -22 -86 23 -86 23 -15 56 c-9 31 -19 76 -22 101 -15
97 -55 150 -112 150 -9 0 -43 -27 -74 -60z m110 35 c34 -17 46 -45 67 -155 8
-47 27 -113 40 -147 14 -35 22 -68 18 -74 -18 -30 -202 42 -275 108 -50 45
-52 86 -8 154 27 43 110 129 124 129 3 0 19 -7 34 -15z m-386 -220 c52 -57 67
-80 62 -95 -3 -11 -10 -20 -15 -20 -15 0 -49 -74 -56 -122 -4 -23 -36 -113
-71 -198 -36 -85 -68 -164 -72 -174 -7 -17 -17 -8 -73 63 l-65 82 66 167 c37
92 85 213 106 269 22 57 42 103 45 103 3 0 36 -34 73 -75z m27 55 c131 -33
145 -39 163 -73 10 -18 37 -46 61 -62 25 -17 43 -32 41 -33 -2 -2 -48 6 -103
19 l-100 22 -74 75 c-43 43 -65 72 -53 69 11 -3 40 -11 65 -17z m1009 -263 c1
-42 -20 -107 -34 -107 -3 0 -30 20 -59 44 -30 24 -67 47 -83 50 -22 5 -236 26
-265 26 -5 0 -8 3 -8 8 1 26 29 35 177 56 94 13 176 31 199 42 l39 19 17 -45
c9 -25 17 -67 17 -93z m-480 74 c-7 -2 -18 4 -26 15 -22 30 -15 39 13 13 16
-15 21 -25 13 -28z m54 32 c38 -8 42 -20 10 -28 -21 -5 -32 -1 -52 21 -22 23
-23 26 -6 20 11 -4 32 -10 48 -13z m-466 1 c-3 -3 -12 -4 -19 -1 -8 3 -5 6 6
6 11 1 17 -2 13 -5z m90 -20 c-3 -3 -12 -4 -19 -1 -8 3 -5 6 6 6 11 1 17 -2
13 -5z m50 -10 c-3 -3 -12 -4 -19 -1 -8 3 -5 6 6 6 11 1 17 -2 13 -5z m158
-52 c62 -5 80 -11 83 -23 2 -13 -11 -17 -70 -22 -68 -6 -78 -4 -133 23 -33 16
-71 38 -84 48 -23 19 -21 19 50 0 41 -10 110 -22 154 -26z m-112 41 c-7 -2
-19 -2 -25 0 -7 3 -2 5 12 5 14 0 19 -2 13 -5z m44 -9 c-3 -3 -12 -4 -19 -1
-8 3 -5 6 6 6 11 1 17 -2 13 -5z m-117 -40 c30 -19 46 -33 35 -30 -11 3 -32 8
-47 11 -14 4 -36 18 -49 31 -34 36 -4 30 61 -12z m308 11 c-10 -22 -13 -24
-26 -11 -17 17 -8 36 18 36 17 0 18 -3 8 -25z m-388 -10 l23 -24 -118 -268
c-65 -147 -121 -272 -125 -276 -3 -4 -28 20 -55 54 -47 60 -48 62 -35 98 24
69 143 346 154 360 15 19 108 81 122 81 6 0 21 -11 34 -25z m556 -35 c86 -7
137 -16 154 -27 43 -28 140 -115 151 -136 11 -20 9 -20 -122 -14 -168 7 -206
20 -296 104 -69 65 -79 91 -20 54 19 -11 37 -21 41 -21 15 0 4 17 -21 32 -16
10 -25 18 -22 18 3 0 64 -5 135 -10z m-396 -137 c0 -11 -237 -573 -245 -581
-7 -8 -125 155 -122 168 3 8 58 135 123 283 l118 267 63 -62 c35 -34 63 -68
63 -75z m35 107 c188 -41 207 -48 245 -85 20 -20 39 -33 42 -29 4 3 17 -2 31
-10 13 -9 55 -23 92 -31 60 -12 105 -36 105 -55 0 -4 -37 1 -82 12 -64 15 -90
26 -115 50 -37 36 -45 27 -10 -10 21 -23 21 -24 2 -18 -20 6 -323 76 -329 76
-2 0 -30 30 -62 66 -38 43 -51 65 -38 61 10 -3 64 -15 119 -27z m169 -9 c16
-18 15 -18 -46 -4 -80 18 -84 23 -21 23 36 0 55 -5 67 -19z m164 -185 c5 -5
-224 -556 -235 -567 -8 -7 -349 53 -359 64 -6 5 190 474 232 558 l13 26 172
-38 c95 -22 174 -41 177 -43z m445 -35 l72 -70 -105 25 c-58 14 -125 30 -150
35 -31 8 -54 21 -73 45 l-29 34 106 0 106 0 73 -69z m-315 2 c65 -15 73 -19
69 -38 -3 -11 -42 -110 -87 -220 -46 -110 -93 -225 -105 -255 l-22 -55 -49 2
c-27 2 -73 9 -101 15 l-52 13 90 215 c50 118 102 246 117 283 23 58 30 67 47
63 11 -3 53 -13 93 -23z m399 -87 c2 -2 -222 -530 -232 -546 -4 -6 -293 43
-299 51 -3 4 179 451 213 525 l19 41 149 -34 c81 -19 149 -36 150 -37z"/>
<path d="M1280 5824 c-33 -11 -71 -13 -146 -8 -149 10 -177 -8 -272 -173 -23
-39 -61 -88 -85 -110 -39 -33 -43 -41 -34 -60 6 -13 14 -23 18 -23 22 0 84 71
139 160 34 56 77 112 97 127 36 27 40 28 151 25 77 -1 132 3 172 13 41 11 66
12 84 6 30 -12 52 -47 33 -54 -7 -3 -5 -6 5 -6 11 -1 24 -20 37 -56 26 -68 26
-75 3 -75 -23 0 -234 39 -239 44 -4 4 140 90 167 99 13 5 13 6 -1 6 -13 1
-390 -221 -426 -251 -7 -6 -12 -25 -12 -42 2 -30 2 -30 6 -3 2 15 8 27 14 27
5 0 67 -9 139 -21 72 -11 136 -19 142 -17 7 3 -44 12 -113 23 -68 10 -133 21
-143 25 -23 8 -28 3 97 80 63 38 73 40 115 34 26 -4 56 -10 67 -15 18 -7 17
-8 -7 -8 -42 -1 -78 -18 -72 -34 3 -8 28 -27 56 -42 43 -23 54 -26 76 -16 24
10 23 8 -8 -19 -19 -16 -37 -30 -41 -30 -3 0 -3 -19 1 -42 4 -24 21 -178 36
-343 16 -165 30 -290 32 -279 3 20 -39 489 -55 608 -5 39 -3 48 8 44 19 -6 27
-36 38 -148 l9 -95 -4 100 c-3 55 -8 108 -11 119 -5 17 0 18 58 13 57 -5 59
-5 20 3 -25 5 -49 11 -54 13 -8 2 90 80 141 111 10 6 26 -4 56 -32 22 -22 74
-56 114 -76 93 -47 95 -58 12 -58 l-35 0 35 -6 35 -7 16 -165 c9 -91 17 -151
18 -135 0 17 -4 90 -11 163 -10 117 -10 135 4 148 14 14 19 12 53 -22 86 -86
85 -175 -6 -369 l-24 -50 -6 50 c-4 28 -5 1 -3 -59 2 -60 6 -111 9 -114 3 -3
5 7 5 21 0 17 5 27 14 27 9 0 35 49 66 123 64 148 75 229 42 293 -20 39 -56
77 -100 106 -22 15 -22 15 34 52 31 21 58 35 61 33 2 -3 17 -108 31 -234 15
-125 28 -217 30 -203 2 14 -9 119 -23 233 -24 197 -25 227 -6 227 10 0 86
-624 78 -644 -14 -36 -25 -11 -33 72 -4 48 -9 78 -11 67 -2 -12 0 -54 5 -94
l9 -73 -86 -73 c-47 -41 -88 -72 -90 -69 -2 2 -8 32 -12 66 l-8 63 3 -67 4
-68 -32 -1 -31 -1 34 -8 c34 -8 40 -4 223 148 l188 156 -2 55 -2 56 -4 -55
c-4 -54 -5 -56 -69 -109 -35 -29 -66 -52 -67 -50 -4 5 -76 598 -76 626 0 30
157 140 163 115 3 -12 5 -10 6 5 1 16 -6 24 -21 28 -55 12 -205 35 -223 34
-11 -1 36 -11 104 -23 l124 -21 -84 -56 -84 -55 -150 28 c-82 15 -166 30 -185
33 -47 9 -25 20 75 36 44 7 84 16 89 20 4 4 -3 17 -18 30 -14 12 -23 26 -20
31 3 4 -5 8 -18 8 -13 0 -41 2 -63 5 -25 3 -32 2 -17 -3 22 -7 19 -10 -36 -49
-33 -23 -65 -44 -71 -45 -9 -3 -65 111 -58 118 1 1 22 -2 47 -6 25 -5 56 -9
70 -8 22 0 -1 6 -96 23 -23 4 -35 14 -44 35 -17 41 -66 80 -98 79 -15 0 -47
-7 -72 -15z m121 -15 l24 -20 -26 5 c-14 3 -53 -1 -85 -10 -45 -12 -83 -14
-155 -9 -146 10 -178 -10 -282 -180 -60 -98 -112 -149 -124 -120 -4 11 6 26
30 46 20 17 61 71 91 122 91 155 119 172 260 163 75 -5 113 -3 146 8 64 20 94
19 121 -5z m327 -152 c9 -10 -6 -19 -70 -40 -86 -28 -87 -26 -23 22 43 33 76
39 93 18z m-383 -56 c77 -16 84 -19 45 -19 -46 -1 -166 21 -177 32 -11 11 40
6 132 -13z m205 -21 c0 -5 -12 -10 -27 -9 -25 0 -26 1 -8 9 27 12 35 12 35 0z
m-135 -37 c-44 -13 -85 -31 -92 -40 -10 -13 -17 -14 -42 -3 -16 6 -37 20 -46
30 -16 18 -15 19 17 24 54 9 99 13 173 14 l70 0 -80 -25z m154 -10 c7 -16 15
-23 19 -16 5 8 43 4 132 -13 69 -13 135 -24 148 -24 34 0 27 -11 -33 -53 l-54
-38 -53 27 c-29 14 -72 42 -95 61 -24 19 -43 31 -43 27 0 -4 -11 3 -25 16 -25
24 -32 40 -17 40 5 0 14 -12 21 -27z m205 -8 c77 -14 144 -25 150 -25 6 0 7
-3 0 -10 -6 -6 -66 0 -174 20 -91 16 -168 30 -172 30 -5 0 -8 5 -8 10 0 12 -3
12 204 -25z m-340 -39 c-49 -35 -93 -62 -97 -59 -12 7 5 22 86 77 104 70 113
55 11 -18z m457 -204 c39 -62 39 -125 0 -229 -52 -140 -79 -193 -96 -187 -20
8 -20 11 19 95 81 175 93 254 51 333 -31 58 -13 50 26 -12z"/>
<path d="M1775 5670 c17 -4 44 -8 60 -8 25 0 24 2 -10 9 -51 10 -92 10 -50 -1z"/>
<path d="M4722 5649 c-51 -37 -152 -169 -194 -253 -17 -33 -32 -63 -33 -64 -2
-2 -42 -14 -89 -25 l-86 -22 -340 -528 -340 -528 163 -78 162 -78 435 -11
c239 -6 438 -7 441 -4 6 7 320 1349 319 1365 0 5 -16 0 -35 -12 -41 -24 -48
-16 -36 40 5 23 7 49 4 58 -29 80 -114 63 -189 -38 -25 -33 -48 -52 -67 -57
-15 -3 -30 -4 -32 -2 -3 2 7 33 22 68 14 36 28 84 31 107 10 92 -55 122 -136
62z m108 -4 c20 -24 6 -96 -32 -177 l-35 -73 -96 -24 c-53 -12 -106 -25 -117
-28 -29 -8 -25 11 17 81 107 178 220 273 263 221z m235 -121 c19 -19 16 -60
-4 -56 -7 1 -44 -6 -82 -17 -38 -11 -69 -15 -69 -10 0 5 20 30 45 54 48 48 82
57 110 29z m-69 -156 c-24 -46 -171 -317 -325 -603 -155 -285 -285 -523 -289
-527 -4 -4 -167 -4 -363 0 l-356 7 139 215 c76 118 183 285 238 370 55 85 141
220 193 300 l93 145 82 21 c66 18 82 19 82 8 0 -20 18 -17 24 4 5 13 35 25
117 45 62 15 114 25 117 22 3 -2 -1 -11 -8 -20 -7 -9 -10 -18 -7 -22 9 -8 35
15 42 38 6 17 69 43 92 38 4 -1 15 1 23 4 32 14 106 35 128 36 22 1 21 -2 -22
-81z m76 35 c6 -8 -35 -132 -131 -390 -77 -208 -179 -484 -227 -613 -47 -129
-90 -239 -94 -244 -8 -7 -194 57 -213 74 -5 4 52 119 126 256 74 137 194 359
267 494 73 135 160 296 194 358 38 71 62 107 65 95 2 -10 8 -23 13 -30z m74
-10 c-3 -10 -37 -155 -76 -323 -39 -168 -104 -447 -145 -620 -40 -173 -76
-330 -80 -347 -4 -18 -12 -33 -18 -33 -6 0 -53 16 -105 36 -75 29 -92 40 -87
53 4 9 106 284 227 611 175 472 226 600 247 617 31 27 44 29 37 6z m-566
-1245 c217 -82 234 -91 165 -84 -27 3 -212 8 -410 11 l-360 6 -142 67 c-78 37
-142 69 -142 72 -1 3 157 4 351 2 l352 -4 186 -70z"/>
<path d="M2133 5515 c0 -33 2 -45 4 -27 2 18 2 45 0 60 -2 15 -4 0 -4 -33z"/>
<path d="M2143 5390 c0 -30 3 -89 7 -130 l7 -75 0 60 c0 33 -3 92 -7 130 -7
68 -7 68 -7 15z"/>
<path d="M983 5370 c0 -25 2 -35 4 -22 2 12 2 32 0 45 -2 12 -4 2 -4 -23z"/>
<path d="M1545 5384 c39 -7 81 -13 95 -12 14 0 -6 6 -45 14 -38 7 -81 13 -95
12 -14 0 7 -6 45 -14z"/>
<path d="M993 5275 c0 -27 2 -38 4 -22 2 15 2 37 0 50 -2 12 -4 0 -4 -28z"/>
<path d="M1003 5180 c0 -25 2 -35 4 -22 2 12 2 32 0 45 -2 12 -4 2 -4 -23z"/>
<path d="M2163 5125 c0 -33 2 -45 4 -27 2 18 2 45 0 60 -2 15 -4 0 -4 -33z"/>
<path d="M1371 5145 c-2 -45 34 -395 37 -360 1 17 -6 111 -17 210 -10 99 -19
167 -20 150z"/>
<path d="M1013 5090 c0 -25 2 -35 4 -22 2 12 2 32 0 45 -2 12 -4 2 -4 -23z"/>
<path d="M1023 5000 c0 -25 2 -35 4 -22 2 12 2 32 0 45 -2 12 -4 2 -4 -23z"/>
<path d="M1033 4910 c0 -25 2 -35 4 -22 2 12 2 32 0 45 -2 12 -4 2 -4 -23z"/>
<path d="M1044 4820 c1 -34 3 -35 56 -47 30 -7 64 -12 75 -10 11 1 -12 8 -52
15 -70 13 -72 15 -76 45 -4 31 -4 30 -3 -3z"/>
<path d="M1225 4750 c17 -4 41 -8 55 -8 22 0 22 1 -5 8 -16 4 -41 8 -55 8 -22
0 -22 -1 5 -8z"/>
<path d="M1411 4741 c-1 -9 -9 -11 -26 -7 -14 4 -25 2 -25 -2 0 -10 90 -25 98
-17 3 3 -4 5 -16 5 -11 0 -23 8 -25 18 -3 9 -5 11 -6 3z"/>
<path d="M1318 4733 c6 -2 18 -2 25 0 6 3 1 5 -13 5 -14 0 -19 -2 -12 -5z"/>
<path d="M1495 4700 c17 -4 41 -8 55 -8 22 0 22 1 -5 8 -16 4 -41 8 -55 8 -22
0 -22 -1 5 -8z"/>
<path d="M1588 4683 c6 -2 18 -2 25 0 6 3 1 5 -13 5 -14 0 -19 -2 -12 -5z"/>
<path d="M1655 4670 c17 -4 41 -8 55 -8 22 0 22 1 -5 8 -16 4 -41 8 -55 8 -22
0 -22 -1 5 -8z"/>
<path d="M1316 4448 c-8 -13 -29 -53 -47 -90 l-33 -68 85 -87 c90 -94 505
-527 604 -631 l60 -63 373 7 373 7 46 84 c25 47 46 91 47 98 1 13 -154 179
-490 528 l-152 157 -49 -2 -48 -1 45 -4 c41 -4 53 -11 123 -81 43 -42 97 -99
120 -126 l41 -49 -129 7 -130 7 -45 48 c-25 27 -78 85 -119 130 l-74 82 84 -5
c46 -3 75 -3 64 0 -25 5 -684 74 -713 74 -12 0 -28 -10 -36 -22z m314 -280 c0
-7 -78 -168 -85 -176 -4 -4 -245 243 -275 281 l-21 27 42 79 43 79 148 -141
c81 -78 148 -145 148 -149z m-12 265 l173 -17 116 -128 c64 -71 114 -131 112
-133 -3 -2 -89 2 -192 8 l-187 12 -143 144 -142 143 45 -6 c25 -3 123 -13 218
-23z m582 -360 c168 -185 307 -340 308 -345 2 -4 -14 -8 -36 -8 -41 0 -41 1
-346 340 -168 187 -306 342 -306 345 0 3 17 5 38 5 37 0 44 -7 342 -337z
m-490 15 c0 -5 -21 -45 -46 -89 -25 -45 -43 -83 -41 -85 3 -3 26 34 52 82 l47
86 61 -58 c34 -33 119 -116 190 -185 l129 -125 -55 -89 c-29 -49 -58 -90 -63
-91 -5 -1 -105 99 -222 222 l-213 223 47 91 47 91 33 -32 c19 -18 34 -37 34
-41z m260 56 c67 -6 77 -10 99 -36 l24 -30 -134 6 c-219 11 -232 13 -265 48
l-29 31 115 -7 c63 -3 149 -9 190 -12z m485 -55 l30 -30 -135 7 c-116 6 -138
9 -157 27 -13 11 -23 25 -23 30 0 5 53 6 128 2 123 -7 128 -8 157 -36z m-495
-15 l145 -6 140 -155 c77 -85 146 -163 154 -174 13 -18 9 -19 -135 -19 l-149
0 -190 185 c-189 184 -190 185 -150 180 22 -2 105 -7 185 -11z m594 -87 c33
-34 105 -108 159 -164 l100 -103 -140 0 -140 0 -120 133 c-66 72 -135 150
-154 171 l-34 39 135 -7 135 -7 59 -62z m-179 -366 l-44 -89 -63 -7 c-35 -3
-109 -5 -165 -3 l-101 3 54 93 55 92 154 0 155 0 -45 -89z m102 -1 l-42 -90
-46 0 -46 0 44 90 43 90 44 0 44 0 -41 -90z m333 78 c-1 -7 -20 -47 -43 -88
l-43 -75 -137 -3 c-75 -1 -137 0 -137 3 0 2 19 43 42 90 l42 85 138 0 c104 0
138 -3 138 -12z"/>
<path d="M3047 4369 c-50 -29 -69 -135 -60 -342 l6 -148 39 -20 c27 -14 38
-16 38 -7 0 7 -14 88 -31 179 l-31 166 21 42 c12 22 32 48 45 57 22 14 27 14
54 0 55 -28 72 -65 82 -178 5 -57 10 -119 10 -138 0 -19 4 -30 8 -24 4 6 21
19 39 28 l32 16 -24 89 c-30 112 -60 197 -80 228 -34 51 -106 76 -148 52z"/>
<path d="M3379 4261 c-51 -39 -60 -85 -60 -289 0 -102 3 -217 7 -257 l6 -71
-60 -23 -61 -22 -148 21 c-81 11 -149 20 -151 20 -2 0 0 5 3 10 8 13 -1 13
-26 0 -12 -7 -19 -20 -18 -38 2 -23 2 -24 6 -4 5 27 4 27 178 2 77 -11 143
-20 148 -20 8 0 10 -1450 2 -1450 -3 0 -46 17 -95 37 l-90 36 -2 106 -2 106
-5 -105 -6 -105 30 -15 c17 -8 32 -16 34 -17 6 -4 -30 -43 -39 -43 -4 0 -15
16 -26 35 -17 32 -22 35 -64 34 -25 -1 -35 -4 -23 -6 20 -4 83 -89 72 -96 -2
-2 -45 -35 -94 -74 -50 -39 -101 -73 -115 -76 -14 -2 13 -4 60 -5 47 0 74 3
61 7 -22 6 -20 9 35 52 84 65 80 65 108 16 14 -24 26 -47 26 -50 0 -4 -30 -8
-67 -9 -41 -1 -52 -3 -28 -5 22 -2 105 1 185 5 130 8 136 9 55 11 l-90 1 -37
59 -37 60 38 30 39 31 43 -19 44 -18 57 28 57 29 40 -77 c45 -86 43 -98 -20
-113 -32 -8 -33 -8 -6 -9 22 -1 137 90 615 486 1194 990 1302 1078 1325 1078
15 0 22 -6 22 -20 0 -13 -283 -254 -955 -812 l-955 -792 -50 -2 -50 -3 49 -3
c32 -3 54 1 65 10 27 23 39 28 46 18 3 -6 -38 -46 -91 -91 l-97 -80 -39 63
-38 62 47 6 c38 5 29 6 -41 7 l-89 2 20 -22 c20 -23 93 -141 93 -151 0 -3 -27
-28 -61 -56 -50 -42 -68 -51 -100 -51 -38 0 -39 1 -119 120 -44 66 -80 121
-80 124 0 3 12 7 28 9 15 3 -54 3 -153 0 -99 -3 -185 -8 -192 -12 -7 -4 20
-48 78 -125 49 -66 89 -121 89 -123 0 -2 -6 -3 -14 -3 -17 0 -189 227 -181
240 4 6 -25 9 -77 8 l-83 -2 70 -4 c70 -4 70 -4 102 -48 l32 -43 -77 -60 c-42
-34 -80 -61 -84 -61 -7 0 -178 185 -178 193 0 3 26 8 58 10 31 2 12 3 -42 3
-83 -1 -101 2 -110 16 -20 32 8 43 127 47 75 3 98 7 70 10 l-42 6 109 83 c60
45 113 82 117 82 5 -1 32 -33 61 -73 l53 -72 -33 -6 c-19 -4 6 -6 57 -6 50 0
77 2 60 4 -24 4 -42 21 -89 87 -33 46 -61 87 -63 93 -3 8 228 193 242 193 3 0
5 -29 5 -65 l0 -65 48 2 47 1 -43 4 -44 4 5 167 c2 92 2 144 0 116 l-4 -52
-338 -256 c-186 -141 -344 -263 -351 -271 -15 -19 -4 -52 20 -60 33 -10 220
-223 220 -250 0 -17 6 -25 24 -27 33 -4 260 -256 246 -273 -12 -14 -1 -25 45
-45 17 -7 62 -49 100 -92 60 -69 70 -84 67 -112 -2 -18 3 -37 10 -44 8 -6 77
-13 163 -16 l150 -5 -145 10 c-80 5 -151 12 -158 14 -7 3 -12 15 -10 27 3 23
4 23 138 20 131 -4 134 -3 113 15 -22 19 -143 178 -143 187 0 3 6 6 13 6 6 0
46 -47 87 -104 41 -57 84 -107 95 -110 11 -3 45 -5 75 -5 37 1 47 3 31 8 -24
6 -23 7 14 35 l38 29 24 -29 c30 -38 29 -44 -9 -44 -17 0 -29 -2 -27 -4 2 -2
69 -6 149 -9 80 -3 128 -2 106 1 l-38 7 51 44 c29 24 53 42 54 40 36 -55 57
-90 57 -94 0 -3 -17 -6 -37 -7 -52 -2 128 -16 202 -16 52 1 55 2 20 7 l-40 6
45 33 c24 17 46 32 49 32 7 0 41 -58 41 -70 0 -5 -10 -11 -22 -13 -15 -3 -11
-5 12 -6 32 -1 107 54 754 544 396 300 724 545 731 545 6 0 17 -6 24 -12 11
-11 13 -10 9 2 -3 9 -16 14 -36 14 l-30 -2 -10 82 -10 81 5 -92 c3 -61 2 -93
-5 -93 -6 0 -13 10 -15 22 l-4 23 -2 -22 c-1 -18 -7 -23 -30 -23 -16 0 -42 -3
-59 -6 -24 -5 -31 -2 -35 12 -3 11 -5 -12 -4 -51 1 -51 -1 -69 -10 -67 -7 1
-13 -2 -13 -7 0 -12 -114 -101 -129 -101 -5 0 -12 10 -14 23 -2 12 -4 8 -3
-10 1 -29 -7 -39 -84 -97 l-85 -66 -17 53 c-18 58 -24 53 -7 -6 13 -47 3 -87
-12 -48 -8 19 -73 272 -82 314 -1 5 3 11 9 14 7 2 22 -38 39 -106 l27 -110 77
59 c42 33 80 60 83 60 3 0 10 -24 14 -52 4 -29 9 -46 11 -38 2 8 -10 80 -27
160 -16 80 -27 126 -25 103 5 -38 3 -43 -18 -48 -12 -3 -51 -5 -86 -3 l-64 3
74 58 c53 42 75 54 81 45 5 -9 8 -6 8 9 0 44 19 32 29 -19 6 -29 20 -96 31
-148 10 -52 18 -80 17 -62 -2 41 34 67 97 71 39 2 45 -1 49 -21 3 -13 3 13 0
57 -6 84 -13 113 -13 52 0 -36 -1 -37 -38 -37 l-38 0 -11 107 -12 108 32 26
c18 15 34 25 37 23 2 -3 10 -46 16 -97 l13 -92 -6 80 c-3 44 -6 91 -7 104 0
13 4 26 10 28 7 2 15 -29 22 -84 l10 -88 -5 80 c-2 44 -6 87 -8 95 -4 15 102
107 112 97 2 -3 12 -79 21 -169 9 -90 18 -155 20 -145 2 9 -4 87 -13 173 -15
148 -13 193 6 163 7 -11 9 -10 9 4 0 10 12 28 27 41 46 40 8 64 -41 25 l-26
-20 -1 43 c-2 34 -3 37 -6 13 -6 -39 -17 -45 -80 -45 l-53 0 -1 38 c-1 20 -3
30 -5 22 -3 -8 0 -46 4 -85 5 -38 10 -58 11 -42 1 25 4 27 49 27 l47 0 -40
-34 c-22 -19 -43 -32 -46 -30 -4 2 -9 -3 -13 -11 -13 -34 -24 -10 -32 68 -4
45 -9 74 -12 65 -2 -13 -13 -18 -41 -18 l-38 0 -13 132 -13 132 27 23 c15 13
31 21 36 18 5 -3 10 1 12 8 3 15 137 137 150 137 4 0 9 -17 11 -37 3 -31 4
-29 5 15 1 28 6 52 11 52 9 0 16 -45 27 -173 4 -43 9 -75 12 -73 3 3 -1 62 -8
131 -11 113 -10 128 4 144 21 23 20 37 -3 53 -10 7 -21 22 -24 33 -2 11 -5 1
-6 -22 -1 -44 -15 -58 -23 -25 -5 17 -11 18 -72 9 -36 -6 -68 -8 -71 -5 -3 3
-9 32 -14 64 -5 32 -9 46 -9 29 -1 -16 5 -75 12 -130 10 -71 14 -87 15 -54 l1
46 62 6 c35 3 64 4 66 3 1 -2 -32 -33 -75 -69 l-78 -67 -6 43 -7 42 1 -49 c1
-44 -2 -52 -30 -73 l-31 -24 -7 58 c-3 32 -9 70 -11 86 -4 18 -1 27 8 27 7 0
23 3 35 6 15 4 22 1 26 -13 8 -30 6 48 -3 102 l-7 50 -2 -46 c-1 -44 -3 -47
-31 -51 -35 -5 -36 -3 -44 102 -6 74 -5 75 23 98 l30 22 6 -47 c10 -80 15 -82
9 -5 -3 46 -2 72 5 72 10 0 16 -16 25 -70 2 -14 2 0 0 31 l-3 56 62 51 c34 27
64 49 66 46 2 -2 10 -52 17 -111 11 -96 12 -99 8 -28 -2 44 -7 99 -10 123 -5
34 -3 42 9 42 12 0 17 -13 20 -47 3 -43 4 -42 3 9 -1 49 2 59 27 82 15 14 27
31 27 39 0 20 -21 37 -46 37 -19 0 -22 7 -28 61 -11 114 -8 145 19 178 27 31
60 45 132 56 48 7 83 42 83 81 0 35 -42 77 -76 77 -55 -1 -1179 -225 -1199
-239 -217 -154 -219 -157 -211 -284 3 -47 8 -99 12 -116 6 -29 2 -35 -47 -72
-59 -45 -62 -44 -74 26 -4 24 -9 41 -12 39 -5 -6 46 -269 54 -277 3 -3 2 15
-2 40 -6 45 -6 45 44 83 28 20 51 34 51 30 0 -5 7 -64 15 -133 20 -172 20
-171 -18 -197 -18 -13 -36 -23 -39 -23 -2 0 -11 33 -18 73 -8 39 -15 65 -17
57 -1 -8 8 -62 21 -120 13 -58 24 -95 25 -83 1 22 57 70 68 59 3 -3 13 -68 21
-145 l15 -140 -29 -24 c-154 -129 -179 -147 -186 -129 -13 33 -8 38 72 81 44
23 82 46 85 50 6 10 -26 174 -32 167 -3 -2 2 -39 11 -82 13 -62 14 -79 4 -86
-31 -19 -786 -428 -792 -428 -3 0 -6 326 -6 725 l0 725 33 14 c75 31 77 31 77
-6 0 -53 9 -58 60 -39 25 10 44 22 44 27 -1 5 -4 25 -8 45 l-6 35 62 22 c35
12 68 22 75 22 7 0 13 -18 15 -44 l3 -45 49 21 48 22 -6 43 c-6 43 -5 45 27
58 18 7 45 17 59 20 26 7 27 5 39 -54 6 -34 14 -60 16 -57 6 6 -18 126 -27
131 -4 3 -21 -2 -38 -11 -17 -8 -43 -16 -58 -17 -25 -2 -28 2 -40 58 -31 138
-78 295 -103 345 -42 87 -112 121 -162 81z m113 -97 c20 -20 39 -49 42 -67 6
-39 21 -253 21 -322 l0 -50 -64 -23 c-35 -12 -66 -20 -69 -17 -3 2 -22 93 -42
201 -40 214 -40 240 6 290 32 34 64 30 106 -12z m1958 -221 c0 -5 -43 -34 -95
-66 -124 -77 -130 -87 -120 -228 4 -73 3 -109 -4 -114 -7 -4 -11 5 -12 22 -1
15 -3 20 -6 11 -3 -12 -23 -20 -71 -27 -701 -116 -1088 -178 -1090 -176 -1 1
-8 43 -13 94 -14 116 -6 139 72 191 l57 39 16 -24 c23 -34 47 -38 133 -21 43
8 254 50 468 91 215 42 400 79 412 82 23 5 23 5 8 -31 -8 -19 -14 -50 -14 -68
1 -28 3 -26 9 13 14 79 31 100 150 173 71 44 100 55 100 39z m-1280 -232 c0
-5 -22 -23 -48 -40 -57 -36 -87 -67 -97 -99 -4 -13 8 -156 26 -318 28 -255 32
-322 15 -303 -9 10 -68 585 -63 617 7 41 33 72 102 118 51 35 65 40 65 25z
m1039 -183 c0 -7 -12 -22 -27 -34 -22 -16 -125 -36 -570 -108 -299 -49 -545
-86 -546 -85 -6 6 -18 49 -14 50 101 17 1129 187 1141 188 9 0 17 -5 16 -11z
m-124 -114 c-27 -25 -62 -54 -77 -65 l-27 -20 -6 24 c-4 14 -5 38 -3 53 3 27
7 30 68 40 98 17 99 17 45 -32z m-122 -41 c6 -60 2 -77 -13 -53 -12 19 -13
110 -1 110 4 0 11 -26 14 -57z m-31 -3 c1 -27 2 -57 2 -66 1 -22 -296 -268
-305 -251 -9 18 -32 307 -24 315 8 8 246 50 293 51 32 1 32 1 34 -49z m-331
-162 c17 -195 16 -177 4 -180 -6 -2 -15 51 -22 127 -14 162 -15 215 -4 215 4
0 15 -73 22 -162z m-31 -18 c8 -93 13 -173 13 -177 -1 -8 -170 -31 -234 -32
l-35 -1 -13 165 c-8 91 -10 169 -7 173 8 8 184 39 232 41 l31 1 13 -170z
m-558 101 c4 -26 -2 -35 -44 -67 -27 -20 -50 -35 -52 -33 -2 2 -6 16 -7 31 -3
21 5 33 41 62 25 19 48 35 51 35 4 1 9 -12 11 -28z m287 -245 c16 -185 20
-261 12 -269 -8 -8 -11 -4 -11 14 -1 13 -11 136 -23 272 -13 136 -21 250 -18
253 13 13 20 -32 40 -270z m-55 242 c9 -41 28 -309 23 -314 -10 -10 -160 -25
-167 -17 -11 12 -41 316 -33 324 9 8 103 26 145 28 21 1 29 -4 32 -21z m756
-267 c15 -136 18 -197 11 -204 -6 -6 -11 -8 -11 -5 0 3 -9 92 -20 197 -18 165
-19 224 -5 209 2 -2 13 -91 25 -197z m-46 132 c12 -74 8 -100 -16 -107 -38
-10 -88 -7 -88 6 0 6 -3 9 -6 5 -4 -3 6 -74 22 -158 15 -84 30 -147 32 -141 1
5 -6 58 -18 117 -11 59 -18 111 -14 116 6 11 104 12 104 2 0 -5 5 -48 11 -97
l11 -88 -33 -34 c-18 -19 -37 -34 -41 -34 -5 0 -19 -10 -31 -23 -18 -19 -124
-111 -190 -166 -9 -8 -19 -12 -22 -10 -5 6 -35 322 -35 373 0 28 5 36 33 49
17 8 57 17 87 19 l55 3 26 -135 c15 -74 27 -128 28 -120 0 8 -13 90 -31 182
-29 154 -31 205 -8 168 8 -12 10 -11 10 6 0 19 82 103 101 104 4 0 9 -17 13
-37z m-154 -102 c0 -12 -9 -20 -25 -23 -31 -6 -32 5 -2 25 28 20 27 20 27 -2z
m460 10 c0 -9 -58 -21 -107 -21 -48 0 -40 18 10 23 82 7 97 7 97 -2z m65 -19
c-51 -45 -514 -441 -808 -691 -202 -172 -365 -316 -362 -319 7 -7 -35 -52 -49
-52 -6 1 3 12 19 25 17 14 27 25 23 25 -4 0 -103 -80 -220 -178 -288 -241
-276 -232 -334 -233 l-49 -2 47 -6 c51 -7 79 -25 62 -39 -19 -18 -150 -119
-163 -126 -8 -5 -16 -3 -21 4 -6 10 17 33 76 78 46 36 82 67 80 70 -3 2 -42
-25 -88 -61 l-84 -66 -37 60 c-20 32 -37 61 -37 64 0 2 35 6 78 8 l77 3 -87 1
c-49 0 -88 -2 -88 -5 0 -3 6 -13 13 -21 8 -9 43 -63 78 -121 36 -58 73 -117
83 -132 15 -24 16 -28 3 -28 -15 0 -190 264 -190 288 0 11 -49 13 -271 7 -275
-6 -348 -11 -330 -23 6 -4 50 -61 99 -127 48 -66 92 -126 98 -132 7 -9 5 -13
-6 -13 -16 0 -219 264 -210 274 4 3 -75 6 -175 6 -115 0 -182 4 -182 10 0 6
40 11 98 12 94 1 95 2 29 7 l-68 6 75 58 c41 31 77 57 79 57 3 0 23 -24 46
-54 l41 -55 -38 -4 c-20 -2 34 -4 120 -5 86 -1 159 1 161 6 3 4 -33 58 -80
121 -46 63 -82 119 -80 125 2 6 13 12 25 14 17 3 36 -20 104 -120 45 -68 81
-126 80 -130 -1 -5 53 -7 120 -7 151 2 405 15 325 17 -57 2 -58 2 -87 48 l-29
46 95 80 c53 44 97 78 98 77 9 -12 116 -224 116 -230 0 -5 -26 -10 -57 -12
-37 -3 -29 -3 19 -2 l77 2 73 59 c143 115 796 668 1318 1117 174 150 289 242
295 236 6 -6 6 -12 0 -17z m-245 -1 c0 -9 -60 -24 -68 -17 -2 3 -1 9 3 15 7
13 65 15 65 2z m-115 -10 c6 -11 -16 -19 -70 -23 -55 -4 -51 16 5 23 25 3 48
7 52 7 4 1 9 -2 13 -7z m-155 -21 c0 -11 -59 -23 -91 -18 -22 4 -20 5 11 15
45 14 80 16 80 3z m-246 -30 c-6 -6 -48 -15 -95 -20 -46 -6 -99 -13 -118 -16
-25 -4 -32 -2 -29 8 3 8 37 17 94 24 121 15 160 16 148 4z m-294 -30 c0 -11
-19 -16 -122 -29 -64 -7 -85 -15 -118 -41 -41 -32 -65 -35 -40 -5 42 51 94 67
268 84 6 0 12 -3 12 -9z m245 -9 c-6 -5 -48 -41 -95 -80 l-85 -70 -8 65 c-5
36 -6 68 -3 71 6 7 105 20 161 22 23 0 35 -3 30 -8z m-230 -106 l7 -80 -76
-62 c-41 -35 -77 -63 -79 -63 -4 0 -25 177 -31 255 -1 18 8 21 79 31 44 6 83
8 87 5 3 -3 9 -42 13 -86z m353 -43 c6 -70 9 -136 6 -147 -3 -11 2 -42 10 -69
8 -27 13 -53 10 -58 -12 -19 -22 -5 -33 48 -7 30 -15 54 -17 51 -2 -2 1 -27 8
-55 6 -29 9 -55 5 -58 -3 -4 -55 -9 -115 -12 l-109 -5 -11 29 c-6 16 -10 22
-10 14 0 -23 36 -118 37 -97 1 15 11 17 79 17 l77 -1 -60 -54 c-33 -29 -62
-51 -65 -49 -3 3 -11 20 -18 37 l-12 32 6 -30 c10 -47 10 -54 -1 -55 -11 -2
-116 330 -109 342 11 18 20 5 38 -57 10 -36 21 -64 23 -61 2 2 -5 35 -17 72
-11 37 -17 70 -13 74 146 122 195 162 197 159 2 -2 16 -55 31 -117 15 -62 29
-111 32 -109 2 3 -9 57 -25 120 -28 108 -29 127 -12 127 4 0 20 -52 36 -115
32 -127 43 -146 20 -34 -8 41 -15 97 -16 124 -2 62 -2 65 8 65 5 0 14 -58 20
-128z m-544 81 c11 -61 28 -254 22 -260 -11 -12 -14 1 -30 139 -19 162 -18
148 -7 148 5 0 12 -12 15 -27z m505 0 c0 -25 -1 -26 -9 -8 -12 27 -12 35 0 35
6 0 10 -12 9 -27z m450 -318 c12 -115 23 -219 24 -229 1 -11 -3 -21 -8 -23
-12 -4 -61 440 -50 457 4 6 8 10 10 8 2 -2 13 -97 24 -213z m-45 123 c3 -35 9
-87 12 -115 l6 -53 -35 0 c-19 0 -38 6 -40 13 -11 26 -5 -31 8 -88 14 -56 14
-57 9 -12 l-5 47 34 0 34 0 9 -90 c9 -87 9 -92 -13 -112 l-22 -21 -6 24 c-3
13 -9 42 -15 64 l-10 40 5 -40 c2 -22 8 -55 11 -74 6 -26 4 -33 -7 -29 -19 6
-96 415 -81 430 7 7 14 -3 21 -33 l10 -44 -5 49 c-5 45 -4 50 28 77 18 15 36
28 39 29 4 0 9 -28 13 -62z m-693 -131 l3 -62 -81 -3 c-79 -3 -81 -2 -85 23
-5 22 5 34 71 89 75 63 76 64 83 39 4 -13 8 -52 9 -86z m578 43 c17 -80 20
-77 -75 -84 -47 -4 -88 -5 -91 -2 -3 3 12 20 33 38 21 18 54 48 74 65 19 18
38 33 42 33 3 0 11 -23 17 -50z m-534 -185 c7 -71 9 -134 5 -139 -5 -5 -11 2
-14 15 -6 31 -27 268 -25 294 2 48 21 -48 34 -170z m1043 126 c-3 -11 -338
-282 -1058 -858 -272 -218 -499 -400 -504 -404 -4 -4 6 -33 23 -65 17 -32 31
-61 31 -65 0 -8 -150 -122 -155 -117 -1 1 -19 30 -39 63 -34 56 -34 60 -18 78
25 28 104 84 127 90 11 2 -95 5 -235 4 -140 0 -238 -3 -217 -6 l37 -6 -34 -27
-35 -28 -20 26 c-12 15 -21 31 -21 35 0 5 -5 9 -10 9 -6 0 21 -47 60 -105 38
-57 70 -107 70 -110 0 -3 -6 -5 -12 -5 -7 0 -44 49 -83 109 l-70 108 -50 6
c-27 4 -161 7 -297 7 -164 0 -249 4 -253 11 -4 6 1 12 11 15 16 4 6 18 -53 79
-118 124 -176 195 -160 195 13 0 148 -140 231 -240 l29 -35 566 -3 566 -3 415
334 c228 183 577 465 775 625 322 260 395 314 383 283z m-1258 -32 c0 -15 -5
-19 -15 -15 -8 3 -15 1 -15 -5 0 -6 -4 -7 -10 -4 -14 8 -16 18 45 -165 56
-168 62 -190 46 -190 -9 0 -121 319 -121 344 0 7 11 18 25 24 14 6 25 16 25
22 0 5 5 10 10 10 6 0 10 -9 10 -21z m1165 2 c-8 -14 -115 -15 -115 -1 0 5 26
10 58 12 65 3 66 3 57 -11z m-165 -1 c0 -5 -6 -10 -12 -10 -7 0 -23 -3 -35 -6
-17 -5 -23 -2 -23 10 0 12 9 16 35 16 19 0 35 -4 35 -10z m-236 -9 c7 -11 -67
-21 -150 -21 -85 0 -82 18 4 23 37 2 84 4 104 5 20 1 39 -2 42 -7z m116 -1 c0
-5 -13 -10 -29 -10 -17 0 -33 5 -36 10 -4 6 8 10 29 10 20 0 36 -4 36 -10z
m-412 -12 c-6 -16 -198 -24 -198 -9 0 6 37 12 83 14 45 1 90 4 100 5 11 1 17
-3 15 -10z m543 -54 c6 -46 4 -51 -25 -76 -17 -14 -34 -23 -37 -20 -4 4 -9 37
-13 74 l-6 67 27 4 c44 6 48 3 54 -49z m-836 37 c-11 -10 -205 -20 -205 -10 0
15 21 19 114 19 60 0 96 -4 91 -9z m376 -22 c6 -22 7 -22 8 -2 1 20 7 21 104
25 56 2 104 3 106 1 2 -2 15 -58 28 -125 l23 -123 -27 -23 c-109 -89 -142
-111 -146 -100 -3 7 -6 3 -6 -9 -1 -36 -19 -27 -30 15 -71 271 -91 350 -91
361 0 21 24 6 31 -20z m-823 -4 c7 -15 8 -26 2 -30 -8 -5 -30 33 -30 51 0 14
18 0 28 -21z m141 -48 c-67 -60 -89 -73 -89 -54 0 19 134 128 139 114 2 -6
-20 -33 -50 -60z m-171 38 c7 -14 12 -28 12 -30 0 -6 -203 -175 -209 -175 -12
1 -49 100 -40 106 5 3 19 -15 30 -41 11 -26 23 -44 26 -42 2 3 -5 24 -17 47
-12 23 -19 45 -15 48 7 8 187 110 196 111 3 1 11 -10 17 -24z m487 -52 c3 -38
8 -82 10 -98 4 -27 -1 -36 -42 -70 -87 -74 -80 -73 -101 -3 -11 35 -23 102
-27 151 l-7 87 80 0 80 0 7 -67z m69 -7 c16 -52 16 -60 3 -74 -14 -13 -16 -11
-21 19 -21 139 -14 161 18 55z m-244 30 c0 -19 3 -43 6 -53 5 -12 4 -15 -4 -8
-13 13 -32 82 -24 89 14 14 22 3 22 -28z m490 17 c0 -10 7 -90 15 -178 21
-228 27 -205 -50 -205 -43 0 -65 4 -65 12 0 6 -2 9 -5 6 -3 -3 4 -35 16 -73
14 -47 17 -71 10 -78 -7 -7 -12 -6 -15 4 -3 8 -22 69 -42 136 -21 68 -39 121
-42 119 -2 -3 3 -26 12 -52 9 -26 16 -54 16 -61 0 -18 -90 -18 -91 0 0 6 -4
50 -8 96 l-8 84 31 28 c17 16 34 29 37 29 3 0 21 -50 39 -111 19 -62 35 -108
37 -103 2 5 -12 58 -31 117 l-34 108 81 70 c45 38 85 69 90 69 4 0 7 -8 7 -17z
m45 -168 c17 -151 19 -213 6 -200 -8 9 -43 334 -40 375 2 39 21 -58 34 -175z
m-641 128 c-89 -73 -103 -83 -108 -74 -4 5 24 35 61 65 40 33 70 51 72 44 2
-6 -9 -22 -25 -35z m-1234 25 c-1 -46 -26 -69 -283 -264 -259 -196 -271 -204
-315 -204 -25 0 -43 2 -41 4 17 18 626 476 632 476 4 0 7 -6 7 -12z m1303
-103 c14 -44 28 -110 32 -146 l6 -66 -46 -38 c-26 -20 -50 -34 -54 -29 -12 13
-101 242 -100 257 1 16 122 117 130 109 4 -4 18 -43 32 -87z m-133 -139 l63
-159 -35 -31 c-64 -57 -80 -68 -89 -59 -13 13 -141 324 -135 330 12 12 26 -14
86 -157 34 -83 64 -149 67 -147 2 2 -20 59 -49 126 l-52 122 32 32 c20 20 35
28 41 22 5 -6 31 -66 57 -134 27 -68 50 -119 51 -114 2 5 -25 81 -61 169 -35
87 -62 163 -59 167 9 15 18 -4 83 -167z m-375 107 c14 -31 22 -59 18 -63 -105
-87 -172 -140 -177 -140 -10 0 -79 144 -70 147 5 2 52 28 104 57 52 30 96 54
98 55 1 1 14 -25 27 -56z m285 37 c0 -11 -60 -69 -72 -70 -19 0 -5 27 24 52
35 29 48 34 48 18z m10 -39 c0 -15 -63 -60 -74 -54 -5 4 6 19 24 35 36 29 50
35 50 19z m1195 -128 c5 -58 4 -83 -4 -83 -6 0 -11 8 -11 18 0 9 -5 50 -10 91
-5 40 -7 78 -3 84 10 17 20 -21 28 -110z m-345 -80 c0 -14 -26 -18 -33 -5 -3
4 -7 50 -10 102 l-6 95 24 -90 c14 -49 25 -96 25 -102z m314 69 c6 -66 5 -73
-11 -70 -13 2 -21 21 -31 71 -12 63 -12 70 4 88 17 19 18 19 25 2 3 -10 9 -51
13 -91z m-1314 49 c-22 -18 -39 -26 -45 -20 -6 6 4 20 25 38 22 18 39 26 45
20 6 -6 -4 -20 -25 -38z m633 -68 c3 -41 2 -73 -3 -73 -14 0 -35 162 -22 174
10 11 19 -24 25 -101z m-1344 -3 c69 -114 69 -113 58 -120 -4 -3 -39 46 -77
108 -41 66 -64 112 -56 112 7 0 41 -45 75 -100z m356 27 c34 -63 42 -87 28
-87 -7 0 -83 133 -83 145 0 3 4 5 10 5 5 0 25 -29 45 -63z m395 44 c0 -17 -64
-64 -68 -51 -3 7 8 23 24 36 31 25 44 29 44 15z m554 -8 c3 -10 6 -45 7 -78
l3 -60 -51 -3 c-51 -3 -51 -3 -63 33 -12 37 -12 37 36 81 55 49 61 51 68 27z
m-1263 -25 c-24 -21 -36 -27 -39 -18 -5 15 36 50 58 49 9 0 2 -12 -19 -31z
m628 -20 c8 -18 38 -83 67 -145 61 -131 71 -157 55 -152 -12 4 -151 295 -151
317 0 23 15 12 29 -20z m152 -106 l52 -124 -27 -26 c-16 -17 -29 -23 -35 -17
-5 6 -35 64 -65 130 l-56 120 31 28 c17 16 35 25 39 20 5 -4 32 -64 61 -131z
m306 96 c-3 -7 -5 -2 -5 12 0 14 2 19 5 13 2 -7 2 -19 0 -25z m-497 9 c0 -15
-148 -140 -167 -140 -7 0 -13 -1 -13 -3 0 -1 36 -70 80 -152 44 -83 80 -153
80 -156 0 -3 -6 -6 -12 -6 -7 0 -49 69 -93 154 l-79 153 34 30 c92 80 156 132
163 133 4 0 7 -6 7 -13z m-1069 -79 c33 -46 55 -84 49 -86 -6 -2 -13 -2 -14
-1 -35 44 -116 158 -116 162 0 23 28 -3 81 -75z m405 43 c-13 -20 -157 -122
-168 -119 -7 3 26 34 72 71 46 36 88 63 92 61 5 -3 6 -9 4 -13z m683 -4 c-58
-44 -158 -131 -155 -135 3 -2 37 23 77 57 40 34 77 60 81 59 5 -2 35 -60 67
-129 l59 -126 -74 -59 c-40 -32 -77 -60 -81 -61 -4 -2 -40 60 -80 136 l-72
139 82 70 c49 41 86 66 91 61 5 -5 8 -10 5 -12z m595 -176 c57 -165 63 -191
47 -191 -11 0 -132 350 -125 362 11 17 21 -5 78 -171z m-94 134 c0 -8 -4 -15
-10 -15 -5 0 -10 7 -10 15 0 8 5 15 10 15 6 0 10 -7 10 -15z m1160 9 c0 -16
-38 -33 -72 -34 -49 0 -53 27 -5 33 57 7 77 7 77 1z m-350 -36 c0 -5 -43 -8
-95 -8 -77 0 -95 3 -95 15 0 11 19 15 88 17 80 3 101 -2 102 -24z m60 28 c0
-3 -4 -8 -10 -11 -5 -3 -10 -1 -10 4 0 6 5 11 10 11 6 0 10 -2 10 -4z m47 -13
c2 -6 -10 -21 -27 -33 -27 -19 -30 -20 -30 -4 0 36 47 67 57 37z m91 0 c2 -9
-9 -13 -37 -13 -30 0 -41 4 -41 16 0 11 9 14 37 12 20 -2 38 -9 41 -15z m-494
-1 c3 -5 -23 -32 -59 -60 -79 -64 -96 -48 -22 20 51 47 71 56 81 40z m-339
-58 c-57 -49 -72 -57 -79 -39 -8 21 93 100 108 85 8 -9 0 -21 -29 -46z m138
42 c6 -15 -20 -26 -65 -26 -21 0 -28 5 -28 20 0 17 7 20 44 20 28 0 46 -5 49
-14z m127 -2 c-15 -18 -71 -15 -78 4 -2 8 10 12 43 12 42 0 46 -2 35 -16z
m-416 -9 c3 -10 -1 -15 -14 -15 -10 0 -62 -34 -115 -75 -52 -41 -98 -75 -100
-75 -3 0 -5 8 -5 19 0 11 23 36 55 60 31 23 53 46 50 51 -3 5 0 12 6 16 8 4 9
3 5 -4 -12 -20 7 -13 39 13 34 28 70 32 79 10z m116 -1 c-15 -17 -61 -15 -68
4 -2 8 9 12 38 12 37 0 41 -2 30 -16z m950 -9 c-7 -8 -16 -15 -21 -15 -5 0 -9
7 -9 15 0 9 9 15 21 15 18 0 19 -2 9 -15z m-285 -3 c-41 -35 -147 -114 -149
-111 -4 6 -26 96 -26 108 0 7 34 11 92 11 51 0 88 -4 83 -8z m-471 -38 c5 -18
-9 -34 -85 -95 -50 -41 -94 -74 -97 -74 -3 0 -14 27 -25 59 l-20 59 44 38 c39
33 51 38 104 41 67 3 70 2 79 -28z m61 26 c-3 -5 -10 -10 -16 -10 -5 0 -9 5
-9 10 0 6 7 10 16 10 8 0 12 -4 9 -10z m206 -62 l17 -68 -42 -33 c-22 -18 -60
-47 -83 -65 l-42 -33 -20 67 c-12 36 -21 72 -21 79 0 20 132 125 154 122 16
-2 24 -17 37 -69z m-560 41 c13 -26 17 -21 -110 -123 -52 -41 -98 -73 -102
-70 -4 2 -12 17 -17 33 -10 29 -8 31 86 105 53 42 105 76 114 76 10 0 22 -10
29 -21z m779 4 c-1 -20 -149 -140 -151 -123 -1 5 -2 15 -3 20 -1 10 132 119
147 120 4 0 7 -8 7 -17z m-1542 -47 c-3 -15 -166 -156 -180 -156 -22 0 0 24
84 94 51 42 94 76 96 76 2 0 2 -6 0 -14z m782 -20 c0 -14 -192 -170 -206 -168
-24 5 0 33 91 107 96 79 115 89 115 61z m-997 -110 c42 -68 77 -126 77 -130 0
-3 -6 -6 -12 -6 -7 1 -47 56 -88 122 -88 142 -86 138 -68 138 7 0 48 -56 91
-124z m1286 112 c0 -18 -183 -162 -187 -149 -2 6 -4 13 -4 17 0 10 166 143
180 143 6 1 12 -5 11 -11z m-1611 -133 c54 -81 77 -125 67 -125 -12 0 -175
227 -175 245 0 3 6 5 13 5 6 -1 49 -57 95 -125z m-239 101 c10 -12 4 -21 -28
-47 -23 -18 -39 -34 -37 -37 3 -2 23 11 45 29 23 18 42 30 44 28 27 -34 147
-200 147 -204 0 -3 -31 -5 -68 -5 l-68 0 -62 83 -61 82 42 37 c51 45 45 50 -9
7 l-39 -31 -22 27 c-13 14 -23 30 -23 36 0 15 126 11 139 -5z m121 -102 c92
-126 97 -134 81 -134 -6 0 -48 51 -94 113 -101 136 -102 137 -85 137 7 0 51
-53 98 -116z m1224 -60 c43 -104 65 -169 59 -175 -10 -10 -155 320 -146 334
11 18 22 -3 87 -159z m248 106 c10 -30 17 -57 16 -61 -4 -10 -191 -159 -199
-159 -7 0 -49 93 -49 109 0 13 192 171 204 167 5 -1 18 -26 28 -56z m-1981
-66 c57 -64 105 -110 107 -104 7 21 156 133 160 121 2 -7 2 -14 1 -15 -116
-92 -165 -126 -178 -125 -9 0 -52 41 -96 90 -119 133 -130 149 -112 149 8 0
61 -52 118 -116z m2289 112 c0 -2 20 -69 45 -148 45 -144 52 -178 37 -178 -5
0 -27 60 -50 133 -50 160 -58 197 -43 197 6 0 11 -2 11 -4z m-672 -69 c-18
-16 -75 -60 -126 -100 -75 -57 -95 -68 -103 -56 -5 7 -9 10 -9 4 0 -5 36 -77
80 -160 46 -85 76 -153 71 -158 -9 -9 -29 23 -125 205 l-57 107 22 12 c13 6
77 54 143 106 88 70 121 91 128 81 5 -9 -2 -22 -24 -41z m667 -37 c14 -46 25
-89 25 -96 0 -11 -160 -144 -173 -144 -3 0 -7 6 -10 14 -4 10 25 38 83 82 49
38 87 70 85 72 -2 3 -43 -26 -90 -63 -48 -37 -88 -65 -89 -64 -7 8 -48 140
-45 143 2 2 44 35 93 75 49 40 90 70 92 68 2 -2 15 -41 29 -87z m232 53 c-8
-12 -152 -123 -161 -123 -3 0 -6 8 -6 18 1 22 150 136 163 123 5 -5 7 -13 4
-18z m-838 -63 c16 -43 18 -57 8 -66 -50 -47 -221 -173 -228 -168 -19 11 -6
25 106 114 104 83 123 100 111 100 -2 0 -54 -40 -116 -90 -62 -49 -116 -90
-119 -90 -4 0 -14 15 -23 33 l-15 32 125 97 c69 54 126 97 128 95 1 -1 12 -27
23 -57z m861 -15 c12 -52 12 -57 -6 -69 -10 -8 -46 -35 -79 -59 l-60 -46 -18
52 c-9 28 -16 54 -15 58 5 12 142 118 154 119 6 0 17 -25 24 -55z m-1600 -3
c0 -14 -90 -83 -105 -80 -9 2 5 19 36 46 49 41 69 51 69 34z m1070 -6 c0 -23
-190 -170 -203 -157 -7 7 -4 16 14 30 13 10 58 46 99 79 79 65 90 70 90 48z
m-1042 -40 c11 -24 9 -25 -34 -32 -25 -3 -47 -4 -51 -1 -7 7 48 56 63 57 6 0
16 -11 22 -24z m1147 -154 c30 -91 44 -147 38 -153 -11 -11 -116 288 -107 303
11 17 21 -4 69 -150z m-389 111 c36 -86 43 -72 -82 -173 -63 -51 -116 -91
-118 -89 -2 2 -16 28 -31 58 -20 39 -24 56 -15 65 23 23 215 175 222 175 4 1
15 -16 24 -36z m332 -51 l21 -63 -57 -44 c-31 -24 -76 -58 -98 -75 l-42 -30
-10 27 c-6 16 -17 45 -26 65 l-16 37 98 79 c53 44 100 77 103 73 4 -3 16 -34
27 -69z m285 -13 l15 -47 -88 -67 c-49 -37 -93 -64 -98 -61 -15 9 -36 96 -26
106 31 31 170 128 175 122 4 -4 13 -28 22 -53z m-1280 -45 c26 -42 47 -77 45
-78 -2 -2 -34 -27 -73 -58 -89 -70 -102 -76 -146 -75 -34 2 -42 9 -107 97 -62
84 -69 97 -56 110 10 10 17 12 22 4 66 -103 136 -204 139 -200 2 2 -34 60 -82
129 -47 69 -85 128 -85 131 0 3 6 6 13 6 6 -1 53 -61 102 -134 50 -74 91 -133
93 -131 2 2 -29 52 -69 111 -39 59 -72 115 -73 123 -1 9 -8 19 -16 24 -10 5
-8 6 6 3 12 -2 28 0 35 5 8 5 57 9 109 9 l95 0 48 -76z m-440 29 l26 -37 -37
-32 c-20 -18 -40 -33 -44 -34 -10 0 -98 116 -98 129 0 7 25 11 63 11 62 0 65
-1 90 -37z m93 -70 c43 -60 88 -122 101 -139 l24 -32 -88 -1 -88 -1 -37 49
-37 49 27 24 c59 53 53 54 117 -32 32 -44 60 -78 63 -76 3 3 -128 187 -181
254 -7 8 -5 12 5 12 9 0 51 -48 94 -107z m-6 93 c0 -26 -21 -29 -43 -7 l-21
21 32 0 c21 0 32 -5 32 -14z m-240 -78 c51 -67 60 -84 48 -92 -8 -6 -35 -28
-61 -49 -25 -22 -50 -37 -56 -35 -9 3 -213 226 -225 247 -5 8 27 11 112 11
l119 0 63 -82z m915 42 c8 -16 15 -31 15 -34 0 -6 -167 -136 -174 -136 -3 0
-13 14 -22 31 -13 26 -14 34 -2 45 24 24 153 123 160 124 4 0 14 -13 23 -30z
m-666 -6 c-6 -7 -15 -11 -21 -8 -5 3 -4 12 3 20 6 7 15 11 21 8 5 -3 4 -12 -3
-20z m1051 -9 c0 -14 -204 -185 -221 -185 -27 0 3 34 99 112 59 48 110 87 115
87 4 1 7 -6 7 -14z m-1110 -34 c0 -15 -72 -71 -83 -64 -5 3 8 21 29 39 40 34
54 41 54 25z m1430 -5 c0 -8 -37 -43 -82 -78 -104 -80 -105 -81 -112 -63 -4
10 23 37 85 85 94 72 109 80 109 56z m-673 -13 c5 -13 -157 -144 -169 -137
-19 12 -3 32 70 91 75 60 92 68 99 46z m467 -124 c52 -125 64 -172 37 -143
-15 15 -119 268 -114 277 10 18 21 -1 77 -134z m-62 57 l26 -64 -99 -77 c-55
-42 -105 -78 -112 -81 -8 -3 -24 18 -41 52 l-27 57 33 26 c18 14 67 54 108 88
41 34 77 62 80 62 3 0 17 -28 32 -63z m306 -45 c-3 -14 -155 -140 -170 -141
-8 0 -32 43 -42 77 -6 18 7 32 86 93 l93 72 18 -43 c10 -24 16 -50 15 -58z
m-660 24 c18 -36 32 -67 32 -69 0 -1 -54 -4 -120 -5 -66 -1 -120 0 -120 3 0 7
160 136 169 136 4 0 21 -29 39 -65z m-331 38 c2 -5 -21 -29 -52 -52 -30 -23
-55 -44 -55 -47 0 -8 20 5 67 43 23 18 45 33 50 33 5 0 17 -14 27 -30 30 -51
12 -60 -111 -59 -57 1 -101 4 -98 8 4 3 39 32 78 63 70 55 87 63 94 41z m-626
-65 c-24 -21 -51 -38 -60 -38 -10 0 3 17 34 44 28 24 54 41 59 38 5 -3 -10
-23 -33 -44z m89 -40 c0 -5 -25 -8 -55 -8 -30 0 -55 4 -55 9 0 5 15 21 33 35
l32 26 22 -27 c13 -16 23 -31 23 -35z m605 2 c3 -5 -1 -10 -10 -10 -9 0 -13 5
-10 10 3 6 8 10 10 10 2 0 7 -4 10 -10z m655 -14 c0 -13 -178 -153 -201 -158
-38 -8 -4 32 86 102 96 74 115 83 115 56z m30 -62 c11 -25 20 -49 20 -53 0 -9
-201 -164 -205 -159 -16 18 -45 92 -38 99 10 10 197 157 201 158 1 1 12 -20
22 -45z m-257 -93 c38 -72 63 -132 58 -135 -5 -4 -26 23 -45 59 -122 222 -114
205 -93 205 6 0 43 -58 80 -129z m-1126 33 c83 -91 92 -104 72 -104 -11 0 -54
44 -148 153 -23 26 -28 37 -18 37 9 0 51 -39 94 -86z m177 27 l46 -59 -44 -36
c-25 -20 -51 -36 -59 -36 -12 0 -151 144 -171 178 -5 9 15 12 88 12 l95 0 45
-59z m151 49 c4 -6 12 -8 18 -4 17 8 -54 -54 -74 -66 -16 -9 -42 15 -73 68 -9
15 119 18 129 2z m95 -4 c0 -8 -128 -106 -138 -106 -6 0 -13 4 -16 9 -9 14
105 101 132 101 12 0 22 -2 22 -4z m230 0 c0 -2 -25 -23 -56 -46 -40 -30 -59
-39 -67 -31 -16 16 60 80 96 81 15 0 27 -2 27 -4z m106 -36 c15 -22 25 -42 23
-44 -27 -25 -156 -126 -161 -126 -7 0 -65 80 -70 97 -2 6 26 34 61 62 81 65
110 67 147 11z m84 -67 c76 -123 76 -123 58 -123 -7 0 -45 52 -85 115 -55 87
-68 115 -55 115 11 0 41 -39 82 -107z m85 80 c-73 -59 -85 -65 -91 -49 -4 9 5
25 23 41 29 28 12 24 -20 -4 -17 -14 -20 -14 -33 4 -8 10 -14 22 -14 27 0 4
37 7 82 6 l82 -1 -29 -24z m-456 -58 c0 -10 -98 -92 -122 -100 -16 -7 -62 54
-50 66 5 5 36 29 68 53 l60 44 22 -27 c12 -14 22 -30 22 -36z m331 -29 c0 -17
-113 -106 -135 -106 -26 0 -15 15 55 74 63 52 80 59 80 32z m-312 1 c16 -18
-77 -90 -110 -85 -20 3 -16 9 37 50 33 26 61 47 61 48 1 0 6 -6 12 -13z m-263
-47 c-10 -11 -31 -20 -48 -20 l-30 0 38 30 c26 21 42 27 48 21 7 -7 4 -17 -8
-31z m875 16 c0 -21 -107 -98 -132 -94 -19 3 -12 11 42 55 66 53 90 64 90 39z
m-830 -31 c11 -13 8 -15 -20 -15 -28 0 -31 2 -20 15 7 8 16 15 20 15 4 0 13
-7 20 -15z"/>
<path d="M5203 3635 c0 -27 2 -38 4 -22 2 15 2 37 0 50 -2 12 -4 0 -4 -28z"/>
<path d="M4932 2560 c0 -14 2 -19 5 -12 2 6 2 18 0 25 -3 6 -5 1 -5 -13z"/>
<path d="M4700 2406 c0 -17 73 -296 77 -293 4 5 -66 289 -73 296 -2 2 -4 1 -4
-3z"/>
<path d="M4432 2250 c0 -8 6 -31 13 -50 7 -19 13 -28 13 -20 0 8 -6 31 -13 50
-7 19 -13 28 -13 20z"/>
<path d="M3810 3654 c0 -22 53 -274 57 -270 5 4 -46 268 -53 275 -2 2 -4 0 -4
-5z"/>
<path d="M3044 3440 c0 -91 2 -128 3 -82 2 45 2 119 0 165 -1 45 -3 8 -3 -83z"/>
<path d="M2864 3480 c0 -52 1 -74 3 -47 2 26 2 68 0 95 -2 26 -3 4 -3 -48z"/>
<path d="M1078 3502 c-7 -10 -20 -21 -30 -24 -42 -16 -24 -144 48 -335 31 -82
34 -98 22 -107 -8 -6 -40 -34 -72 -63 l-57 -52 301 -528 c166 -290 305 -532
310 -537 6 -6 44 -4 96 4 l88 13 415 370 c229 203 416 375 416 381 0 6 -218
189 -485 408 -366 300 -487 394 -497 386 -10 -8 -18 -4 -32 13 l-19 23 -53
-45 -54 -46 -83 47 c-101 58 -230 110 -271 110 -17 0 -35 -8 -43 -18z m236
-66 c146 -72 201 -104 193 -112 -3 -3 -36 13 -74 35 -70 41 -89 49 -78 31 3
-6 -1 -7 -10 -3 -11 4 -13 8 -6 13 13 7 -122 73 -184 89 -32 9 -43 8 -54 -4
-13 -12 -12 -25 6 -97 11 -46 41 -137 67 -202 26 -65 44 -121 41 -124 -8 -9
-83 180 -115 294 -51 177 -11 192 214 80z m-51 2 c37 -17 66 -33 64 -34 -2 -2
-39 12 -83 31 -43 19 -86 35 -94 34 -8 0 12 -10 45 -23 33 -13 84 -35 113 -50
29 -15 58 -24 64 -20 7 5 8 2 3 -6 -6 -10 -4 -12 11 -6 10 4 15 4 12 0 -4 -3
3 -15 15 -26 28 -25 19 -22 -78 28 -69 35 -131 61 -210 89 l-20 7 20 9 c27 11
57 4 138 -33z m-202 23 c-30 -19 -3 -141 85 -386 5 -14 4 -17 -4 -10 -17 15
-77 189 -97 278 -18 82 -12 127 17 127 10 0 9 -3 -1 -9z m84 -267 c33 -84 38
-114 16 -114 -15 0 -93 251 -97 315 l-4 60 24 -86 c14 -47 41 -126 61 -175z
m95 206 c87 -38 170 -82 170 -91 0 -10 -187 -179 -198 -179 -5 0 -12 8 -15 18
-3 9 -24 69 -46 132 -23 63 -41 127 -41 142 0 24 2 26 28 19 15 -5 61 -23 102
-41z m308 -17 c-17 -41 -26 -49 -40 -35 -9 9 -6 17 12 37 31 33 42 32 28 -2z
m-69 -66 c8 -11 -16 -37 -112 -119 -121 -106 -142 -120 -142 -95 0 11 227 227
239 227 2 0 8 -6 15 -13z m-297 -278 c-9 -9 -39 -28 -67 -43 l-50 -27 60 55
c40 37 62 51 67 43 4 -7 0 -19 -10 -28z"/>
<path d="M2854 3275 c0 -55 1 -76 3 -47 2 29 2 74 0 100 -2 26 -3 2 -3 -53z"/>
<path d="M5273 3285 c0 -27 2 -38 4 -22 2 15 2 37 0 50 -2 12 -4 0 -4 -28z"/>
<path d="M3033 3195 c0 -27 2 -38 4 -22 2 15 2 37 0 50 -2 12 -4 0 -4 -28z"/>
<path d="M5283 3185 c0 -27 2 -38 4 -22 2 15 2 37 0 50 -2 12 -4 0 -4 -28z"/>
<path d="M5253 3145 c0 -27 2 -38 4 -22 2 15 2 37 0 50 -2 12 -4 0 -4 -28z"/>
<path d="M2844 3065 c0 -55 1 -76 3 -47 2 29 2 74 0 100 -2 26 -3 2 -3 -53z"/>
<path d="M3034 2985 c0 -60 1 -84 3 -52 2 32 2 81 0 110 -2 29 -3 3 -3 -58z"/>
<path d="M3932 3060 c0 -14 2 -19 5 -12 2 6 2 18 0 25 -3 6 -5 1 -5 -13z"/>
<path d="M2834 2860 c0 -52 1 -74 3 -47 2 26 2 68 0 95 -2 26 -3 4 -3 -48z"/>
<path d="M5283 2845 c0 -27 2 -38 4 -22 2 15 2 37 0 50 -2 12 -4 0 -4 -28z"/>
<path d="M5143 2810 c0 -25 2 -35 4 -22 2 12 2 32 0 45 -2 12 -4 2 -4 -23z"/>
<path d="M3024 2650 c0 -102 2 -143 3 -92 2 50 2 134 0 185 -1 50 -3 9 -3 -93z"/>
<path d="M5113 2770 c0 -25 2 -35 4 -22 2 12 2 32 0 45 -2 12 -4 2 -4 -23z"/>
<path d="M3992 2770 c0 -14 2 -19 5 -12 2 6 2 18 0 25 -3 6 -5 1 -5 -13z"/>
<path d="M5293 2745 c0 -27 2 -38 4 -22 2 15 2 37 0 50 -2 12 -4 0 -4 -28z"/>
<path d="M5152 2730 c0 -19 3 -57 8 -85 6 -40 7 -43 8 -15 0 19 -3 58 -8 85
-6 40 -7 43 -8 15z"/>
<path d="M2824 2650 c0 -52 1 -74 3 -47 2 26 2 68 0 95 -2 26 -3 4 -3 -48z"/>
<path d="M5333 2695 c0 -27 2 -38 4 -22 2 15 2 37 0 50 -2 12 -4 0 -4 -28z"/>
<path d="M5122 2690 c0 -19 3 -57 8 -85 6 -40 7 -43 8 -15 0 19 -3 58 -8 85
-6 40 -7 43 -8 15z"/>
<path d="M5303 2645 c0 -27 2 -38 4 -22 2 15 2 37 0 50 -2 12 -4 0 -4 -28z"/>
<path d="M5343 2595 c0 -27 2 -38 4 -22 2 15 2 37 0 50 -2 12 -4 0 -4 -28z"/>
<path d="M5363 2395 c0 -27 2 -38 4 -22 2 15 2 37 0 50 -2 12 -4 0 -4 -28z"/>
<path d="M5373 2295 c0 -27 2 -38 4 -22 2 15 2 37 0 50 -2 12 -4 0 -4 -28z"/>
<path d="M5223 2125 c0 -22 2 -30 4 -17 2 12 2 30 0 40 -3 9 -5 -1 -4 -23z"/>
<path d="M5460 2043 c0 -6 -71 -64 -157 -129 -440 -331 -561 -425 -515 -400
18 10 15 1 -5 -15 -11 -10 -14 -10 -9 -1 11 18 -9 15 -25 -5 -10 -11 -10 -14
-1 -9 18 11 15 1 -5 -15 -11 -10 -14 -10 -9 -1 4 6 5 12 1 12 -3 0 -168 -124
-367 -275 -199 -151 -374 -276 -388 -278 l-25 -4 26 -2 c20 -1 70 32 195 127
93 71 176 131 184 134 8 3 96 65 195 137 163 119 181 130 192 114 18 -24 16
-56 -6 -84 -10 -14 -180 -144 -376 -289 -678 -503 -799 -595 -804 -610 -2 -9
4 -6 15 7 10 12 228 176 484 365 663 491 660 488 714 543 45 44 50 47 57 29 5
-11 6 -3 2 21 -3 22 -10 48 -14 57 -5 9 -9 21 -9 27 0 6 80 71 178 144 l178
134 25 -21 c14 -11 114 -95 223 -185 109 -90 201 -173 206 -185 7 -17 9 -18 9
-3 1 22 -5 28 -260 238 l-210 173 23 18 c13 10 26 17 30 15 25 -8 452 -375
464 -400 21 -39 14 -119 -11 -147 -25 -27 -1203 -943 -1235 -961 -14 -7 -59
-16 -100 -19 l-75 -7 63 -1 c68 -2 116 13 170 54 34 26 34 26 73 9 32 -15 39
-23 39 -47 0 -73 59 -138 126 -138 69 0 134 77 134 158 0 85 -46 143 -117 147
-20 2 -39 9 -43 16 -6 10 93 92 354 295 l361 282 29 -17 c15 -9 29 -20 31 -26
1 -5 8 -30 15 -54 18 -66 58 -101 113 -101 80 0 137 67 137 162 0 83 -46 137
-117 138 -17 0 -35 5 -38 11 -4 5 19 34 52 63 l58 53 0 66 c0 51 -4 70 -20 87
-11 13 -114 102 -230 198 -115 96 -214 178 -218 182 -5 5 45 49 111 99 122 91
139 107 128 118 -3 4 -6 2 -6 -4z m-305 -261 c-28 -25 -175 -132 -175 -128 0
6 170 136 179 136 3 0 1 -4 -4 -8z m-190 -142 c-3 -5 -20 -19 -38 -30 -32 -22
-32 -22 3 9 37 32 45 37 35 21z m-75 -53 c0 -2 -10 -12 -22 -23 l-23 -19 19
23 c18 21 26 27 26 19z m735 -484 c26 -43 45 -71 42 -63 -3 8 -8 24 -12 35 -6
17 -4 17 14 -4 45 -50 11 -151 -50 -151 -25 0 -69 36 -69 57 0 16 0 16 39 -3
29 -14 34 -14 56 0 14 9 25 22 24 29 0 9 -2 9 -6 -1 -2 -7 -13 -17 -24 -22
-15 -8 -37 -1 -108 34 -49 25 -92 50 -95 55 -6 10 112 110 130 111 7 0 33 -35
59 -77z m-882 -699 c20 -34 37 -70 37 -81 0 -24 -19 -43 -43 -43 -24 0 -198
92 -194 103 1 4 33 32 72 61 61 48 71 52 80 38 7 -10 28 -45 48 -78z m67 -91
c0 -25 -8 -43 -29 -64 -35 -35 -57 -36 -88 -7 -28 26 -31 54 -5 43 81 -35 119
4 88 90 -7 17 -5 17 13 -4 13 -14 21 -37 21 -58z"/>
<path d="M2413 1933 c26 -2 68 -2 95 0 26 2 4 3 -48 3 -52 0 -74 -1 -47 -3z"/>
<path d="M2973 1893 c26 -2 67 -2 90 0 23 2 2 3 -48 3 -49 0 -68 -1 -42 -3z"/>
<path d="M4805 1326 c-17 -35 -97 -98 -575 -453 -305 -226 -554 -416 -553
-422 2 -6 -3 -8 -11 -5 -8 3 -17 1 -20 -4 -6 -10 220 -39 229 -30 3 3 -30 8
-74 12 -69 6 -126 26 -111 39 23 20 152 109 154 106 1 -2 24 -39 49 -81 l47
-78 -28 -1 c-35 -2 72 -17 118 -17 22 1 26 2 13 5 -15 3 -23 12 -23 24 0 61
-70 129 -133 129 -14 0 -27 7 -31 15 -5 15 37 48 551 428 l132 98 40 -23 c30
-17 41 -29 41 -47 0 -44 38 -108 74 -125 46 -22 77 -20 117 7 93 62 93 224 0
272 -17 8 -41 15 -54 15 -51 0 -49 23 4 69 28 24 55 55 60 69 16 43 5 41 -16
-2z m-61 -176 c20 -33 43 -72 51 -87 10 -18 15 -22 15 -11 0 9 -4 20 -10 23
-5 3 -10 11 -10 17 0 6 9 3 20 -7 14 -13 20 -31 20 -61 0 -35 -5 -47 -31 -68
-17 -14 -37 -26 -45 -26 -19 0 -64 45 -64 64 0 13 4 13 29 -2 36 -20 84 -8 89
23 3 18 2 18 -13 -2 -9 -13 -24 -23 -34 -23 -14 0 -194 90 -209 105 -4 3 140
113 149 114 3 1 23 -26 43 -59z m-786 -718 c8 -12 10 -22 4 -22 -5 0 -17 12
-27 26 -11 17 -13 25 -4 22 7 -2 19 -14 27 -26z"/>
<path d="M5595 1314 c-23 -24 -907 -718 -1159 -909 -32 -24 -51 -30 -115 -36
l-76 -6 62 -1 c34 -1 73 2 87 8 32 12 1205 923 1225 951 23 32 8 28 -24 -7z"/>
<path d="M3203 973 c20 -2 54 -2 75 0 20 2 3 4 -38 4 -41 0 -58 -2 -37 -4z"/>
<path d="M3363 963 c20 -2 54 -2 75 0 20 2 3 4 -38 4 -41 0 -58 -2 -37 -4z"/>
<path d="M3523 953 c20 -2 54 -2 75 0 20 2 3 4 -38 4 -41 0 -58 -2 -37 -4z"/>
<path d="M3683 943 c20 -2 54 -2 75 0 20 2 3 4 -38 4 -41 0 -58 -2 -37 -4z"/>
<path d="M3833 933 c20 -2 54 -2 75 0 20 2 3 4 -38 4 -41 0 -58 -2 -37 -4z"/>
<path d="M3560 406 c0 -16 26 -39 37 -34 4 1 -2 13 -14 25 -15 14 -23 18 -23
9z"/>
<path d="M4088 383 c12 -2 32 -2 45 0 12 2 2 4 -23 4 -25 0 -35 -2 -22 -4z"/>
<path d="M4178 373 c12 -2 32 -2 45 0 12 2 2 4 -23 4 -25 0 -35 -2 -22 -4z"/>
<path d="M3638 363 c12 -2 32 -2 45 0 12 2 2 4 -23 4 -25 0 -35 -2 -22 -4z"/>
<path d="M3733 351 c18 -4 33 -18 45 -41 39 -78 132 -90 195 -25 25 26 43 35
67 35 63 0 25 8 -65 13 -49 3 -74 2 -55 -1 l35 -7 -27 -19 c-30 -20 -56 -16
-83 14 -18 19 -17 20 11 21 37 2 -69 17 -116 17 -32 0 -33 -1 -7 -7z"/>
<path d="M4098 313 c12 -2 32 -2 45 0 12 2 2 4 -23 4 -25 0 -35 -2 -22 -4z"/>
<path d="M4188 303 c12 -2 32 -2 45 0 12 2 2 4 -23 4 -25 0 -35 -2 -22 -4z"/>
</g>
</svg>
