<?xml version="1.0" standalone="no"?>
<!DOCTYPE svg PUBLIC "-//W3C//DTD SVG 20010904//EN"
 "http://www.w3.org/TR/2001/REC-SVG-20010904/DTD/svg10.dtd">
<svg version="1.0" xmlns="http://www.w3.org/2000/svg"
 width="626.000000pt" height="626.000000pt" viewBox="0 0 626.000000 626.000000"
 preserveAspectRatio="xMidYMid meet">

<g transform="translate(0.000000,626.000000) scale(0.100000,-0.100000)"
fill="#000000" stroke="none">
<path d="M2100 5886 c-65 -17 -115 -51 -134 -90 -9 -19 -16 -38 -16 -43 0 -5
-11 -16 -25 -23 -38 -20 -54 -84 -39 -159 5 -25 11 -31 32 -31 15 0 37 -13 58
-35 38 -40 54 -44 54 -13 0 12 10 41 21 66 15 31 20 55 17 86 l-5 42 51 -4
c40 -3 72 3 141 27 49 17 104 31 123 31 44 0 80 -36 88 -90 7 -45 27 -49 32
-7 2 15 11 29 22 32 27 9 35 43 15 65 -15 17 -15 20 9 43 36 36 33 49 -7 42
-22 -5 -52 1 -93 16 -155 57 -252 70 -344 45z"/>
<path d="M2380 5621 c0 -10 24 -21 46 -21 8 0 11 6 8 15 -6 16 -54 21 -54 6z"/>
<path d="M2157 5603 c-4 -3 -7 -12 -7 -19 0 -11 5 -11 25 -2 14 6 25 15 25 20
0 10 -34 11 -43 1z"/>
<path d="M2384 5545 c-4 -9 -2 -21 4 -27 15 -15 44 -1 40 19 -4 23 -36 29 -44
8z"/>
<path d="M2194 5535 c-7 -18 3 -35 21 -35 15 0 28 27 19 41 -8 14 -34 11 -40
-6z"/>
<path d="M2282 5361 c4 -13 18 -16 19 -4 0 4 -5 9 -11 12 -7 2 -11 -2 -8 -8z"/>
<path d="M1977 5346 c-15 -12 -16 -18 -7 -35 15 -28 17 -27 22 14 2 19 4 35 3
35 0 0 -8 -7 -18 -14z"/>
<path d="M2479 5082 c62 -65 76 -126 76 -334 0 -112 4 -178 10 -178 26 0 115
51 130 74 16 24 15 30 -41 178 -89 237 -112 275 -186 293 -26 7 -25 5 11 -33z"/>
<path d="M4265 5100 c3 -5 8 -10 11 -10 2 0 4 5 4 10 0 6 -5 10 -11 10 -5 0
-7 -4 -4 -10z"/>
<path d="M1682 5060 c-106 -48 -152 -116 -152 -224 0 -57 32 -231 68 -370 22
-86 40 -96 146 -77 70 12 184 64 193 88 3 7 -13 97 -36 200 -44 202 -80 295
-143 366 l-33 37 -43 -20z"/>
<path d="M4150 5060 c-9 -6 -10 -10 -3 -10 6 0 15 5 18 10 8 12 4 12 -15 0z"/>
<path d="M4195 5030 c10 -11 20 -20 23 -20 3 0 -3 9 -13 20 -10 11 -20 20 -23
20 -3 0 3 -9 13 -20z"/>
<path d="M4311 4994 c0 -11 3 -14 6 -6 3 7 2 16 -1 19 -3 4 -6 -2 -5 -13z"/>
<path d="M3409 4614 c-25 -7 -66 -31 -90 -52 -24 -21 -59 -44 -76 -51 -73 -29
-143 -144 -143 -232 0 -37 -25 -57 -52 -40 -17 11 -47 -4 -262 -128 -134 -78
-245 -141 -249 -141 -3 0 -7 18 -9 40 l-3 40 -32 -26 -32 -25 30 -27 c22 -19
35 -44 44 -82 8 -36 17 -54 25 -52 7 2 104 55 214 119 301 174 314 182 320
175 10 -10 6 -173 -4 -193 -15 -27 -85 -61 -145 -69 l-50 -6 28 -14 c49 -24
31 -33 -57 -28 -95 5 -95 5 -44 -69 29 -44 116 -123 134 -123 6 0 19 10 30 22
40 45 137 107 201 129 63 21 67 21 79 4 22 -29 37 -123 29 -184 -14 -108 -53
-180 -129 -234 -17 -12 -17 -18 -6 -73 7 -32 29 -112 50 -176 l38 -118 -42 0
-41 0 70 -40 70 -39 7 51 c7 54 32 97 66 113 11 5 26 19 33 31 16 30 60 47 98
39 42 -9 115 -93 142 -163 23 -62 39 -189 22 -179 -6 4 -13 30 -16 59 -17 161
-141 312 -208 252 -26 -23 -25 -26 20 -51 70 -40 141 -184 141 -287 0 -42 0
-42 76 -85 l76 -44 -4 -41 -5 -41 179 -103 180 -102 76 42 c93 52 92 52 92 41
0 -4 -36 -28 -80 -53 -43 -24 -81 -52 -83 -62 -7 -27 11 -22 105 25 l86 44 28
-59 c24 -50 32 -59 61 -64 69 -13 188 20 226 64 18 20 18 25 -9 186 l-27 165
69 105 c37 58 71 106 74 106 3 0 92 -70 198 -156 106 -86 194 -154 196 -153 1
2 11 27 21 54 17 47 84 125 128 150 16 9 -5 44 -181 306 -109 164 -215 317
-235 342 -51 62 -113 91 -182 84 -65 -7 -110 -29 -201 -100 l-70 -55 -36 33
c-36 34 -90 55 -139 55 -35 0 -103 -25 -139 -50 -15 -11 -30 -20 -32 -20 -1 0
-1 25 0 56 5 75 -14 137 -58 193 -42 53 -151 137 -243 188 l-62 34 85 -3 85
-2 -3 39 c-4 45 -31 111 -63 157 l-22 31 -12 -47 c-15 -60 -54 -100 -111 -116
-51 -15 -56 -37 -13 -57 34 -16 61 -58 57 -86 -9 -61 -186 -87 -276 -39 -62
33 -86 60 -71 78 8 10 10 37 6 90 -7 79 -19 115 -31 95 -14 -23 -73 -12 -104
19 -36 35 -45 74 -27 117 18 43 56 53 95 24 16 -11 34 -21 39 -21 16 0 22 36
11 65 -9 23 -7 32 8 49 29 31 45 92 38 142 l-6 43 28 -10 c15 -6 77 -12 138
-13 125 -2 152 -13 174 -66 11 -27 17 -31 39 -25 41 10 44 20 23 69 -24 52
-18 59 15 19 l22 -28 -16 45 c-10 27 -40 68 -73 101 -45 45 -66 58 -116 72
-72 20 -142 21 -205 1z"/>
<path d="M3640 4351 c0 -10 24 -21 46 -21 8 0 11 6 8 15 -6 16 -54 21 -54 6z"/>
<path d="M3432 4318 c-12 -12 -17 -38 -7 -38 12 0 55 33 55 41 0 13 -34 11
-48 -3z"/>
<path d="M3657 4284 c-4 -4 -7 -14 -7 -23 0 -11 3 -12 11 -4 6 6 18 9 27 6 10
-4 13 -1 10 8 -5 16 -30 23 -41 13z"/>
<path d="M3465 4239 c-10 -15 -4 -18 27 -12 15 3 25 9 22 14 -7 12 -41 11 -49
-2z"/>
<path d="M3565 4091 c25 -14 42 -18 49 -11 14 14 6 18 -44 26 l-45 6 40 -21z"/>
<path d="M1585 3989 c-11 -81 17 -307 55 -434 4 -16 36 -121 70 -232 l62 -202
-49 -58 c-26 -32 -81 -112 -122 -178 -41 -66 -77 -122 -81 -125 -3 -3 -21 -28
-39 -57 l-33 -52 29 -53 c35 -65 121 -155 157 -164 24 -6 36 3 116 85 49 50
94 91 100 91 5 0 10 -10 10 -23 0 -36 50 -214 186 -665 l16 -54 21 21 c36 33
117 63 185 69 l64 5 -6 106 c-3 58 -13 292 -22 519 l-16 414 37 38 38 38 -31
149 c-18 87 -27 152 -22 157 5 5 58 37 117 71 l108 62 3 117 3 118 -44 -36
c-24 -20 -53 -36 -65 -36 -11 0 -24 -4 -27 -10 -8 -13 -65 -13 -85 0 -12 7
-11 12 5 30 25 27 24 76 -3 102 -19 19 -24 20 -48 9 -32 -14 -44 -6 -60 42
l-11 32 -144 6 c-202 8 -339 46 -431 119 l-36 29 -7 -50z m662 -274 c24 -51 3
-82 -37 -55 -13 9 -13 12 3 21 24 14 4 53 -24 44 -21 -7 -26 14 -7 33 16 16
46 -3 65 -43z"/>
<path d="M2428 3442 c-54 -32 -97 -59 -98 -62 0 -5 157 -93 176 -98 6 -2 14 7
18 20 11 42 19 198 10 197 -5 0 -53 -26 -106 -57z"/>
<path d="M2348 3235 c14 -69 28 -125 32 -125 22 0 77 52 102 96 l28 51 -90 52
c-49 28 -91 51 -93 51 -2 0 7 -56 21 -125z"/>
<path d="M2383 3058 c3 -13 16 -74 28 -136 13 -70 26 -111 33 -109 14 5 15 3
-13 139 -15 78 -28 119 -38 122 -12 5 -14 1 -10 -16z"/>
<path d="M3365 3050 c-26 -29 -47 -150 -25 -150 5 0 61 -31 125 -70 l115 -69
0 42 c0 93 -62 222 -121 252 -42 22 -47 19 -54 -35 -4 -30 -11 -48 -17 -44 -6
4 -8 25 -4 50 3 24 4 44 2 44 -1 0 -11 -9 -21 -20z"/>
<path d="M5549 2969 c-30 -30 -60 -102 -79 -189 l-16 -75 -28 28 c-23 23 -30
26 -43 16 -8 -7 -23 -13 -33 -14 -54 -4 -109 -87 -118 -175 -4 -44 -1 -52 39
-102 24 -31 63 -81 87 -112 27 -36 57 -63 80 -73 35 -14 39 -14 79 7 40 21 76
59 101 106 7 12 20 75 31 140 10 66 29 146 42 179 37 99 26 180 -35 253 -33
38 -75 43 -107 11z"/>
<path d="M3172 2955 c0 -16 2 -22 5 -12 2 9 2 23 0 30 -3 6 -5 -1 -5 -18z"/>
<path d="M3304 2780 c2 -22 36 -26 35 -3 0 10 -3 13 -6 6 -2 -7 -8 -13 -13
-13 -5 0 -10 6 -13 13 -2 7 -3 6 -3 -3z"/>
<path d="M2443 2758 c3 -13 15 -70 28 -128 24 -115 23 -115 37 -106 6 3 5 30
-3 68 -7 35 -18 88 -25 120 -6 34 -17 59 -27 62 -12 5 -14 1 -10 -16z"/>
<path d="M3243 2735 c0 -22 2 -30 4 -17 2 12 2 30 0 40 -3 9 -5 -1 -4 -23z"/>
<path d="M3153 2725 c0 -22 2 -30 4 -17 2 12 2 30 0 40 -3 9 -5 -1 -4 -23z"/>
<path d="M3612 2700 c0 -19 2 -27 5 -17 2 9 2 25 0 35 -3 9 -5 1 -5 -18z"/>
<path d="M3610 2620 c0 -5 -7 -10 -17 -10 -19 0 -9 -13 12 -16 9 -1 15 6 15
17 0 10 -2 19 -5 19 -3 0 -5 -4 -5 -10z"/>
<path d="M2796 2529 c-4 -30 -9 -65 -12 -79 -3 -19 2 -29 23 -42 16 -9 55 -35
88 -58 l60 -41 32 68 c38 81 38 83 15 83 -10 0 -31 14 -47 30 -34 35 -76 42
-68 10 3 -11 1 -20 -5 -20 -5 0 -13 15 -16 33 -3 19 -13 42 -22 53 -14 18 -15
15 -9 -31 3 -27 8 -67 11 -87 3 -22 2 -38 -4 -38 -12 0 -22 48 -22 104 0 67
-17 77 -24 15z"/>
<path d="M2730 2533 c-8 -21 -17 -42 -19 -47 -2 -5 2 -5 9 -1 10 6 12 4 7 -8
-3 -10 -3 -17 2 -17 5 0 11 18 15 39 3 22 9 46 12 55 3 9 2 16 -3 16 -5 0 -15
-17 -23 -37z"/>
<path d="M3442 2550 c0 -14 2 -19 5 -12 2 6 2 18 0 25 -3 6 -5 1 -5 -13z"/>
<path d="M1305 2506 c-82 -58 -108 -98 -100 -154 3 -23 15 -68 26 -99 14 -41
19 -84 19 -162 0 -82 5 -115 19 -147 38 -84 131 -149 230 -161 59 -7 91 9 110
55 10 25 9 38 -9 88 -30 82 -51 179 -53 246 -1 45 3 63 21 88 33 44 25 69 -32
108 -61 40 -100 42 -121 5 -16 -28 -16 -28 -11 21 5 36 1 60 -14 93 -11 25
-17 49 -14 54 11 18 -12 6 -71 -35z"/>
<path d="M2771 2534 c0 -11 3 -14 6 -6 3 7 2 16 -1 19 -3 4 -6 -2 -5 -13z"/>
<path d="M3746 2463 c-4 -49 -8 -99 -11 -113 -3 -22 5 -30 58 -62 l62 -36 21
106 c11 59 19 110 17 114 -3 6 -130 78 -137 78 -3 0 -7 -39 -10 -87z"/>
<path d="M2660 2531 c-22 -6 -23 -8 -7 -14 11 -4 23 -5 28 -2 5 4 6 -2 2 -12
-8 -23 1 -15 16 15 13 24 8 26 -39 13z"/>
<path d="M3691 2504 c0 -11 3 -14 6 -6 3 7 2 16 -1 19 -3 4 -6 -2 -5 -13z"/>
<path d="M2761 2488 c0 -14 -4 -35 -7 -45 -5 -17 -5 -17 6 0 6 10 9 30 7 45
l-4 27 -2 -27z"/>
<path d="M3232 2480 c0 -14 2 -19 5 -12 2 6 2 18 0 25 -3 6 -5 1 -5 -13z"/>
<path d="M3115 2453 c12 -29 45 -134 45 -144 0 -5 -4 -9 -10 -9 -5 0 -10 6
-10 14 0 19 -41 149 -45 144 -4 -3 3 -68 20 -190 3 -21 1 -38 -4 -38 -10 0
-16 33 -27 145 l-8 70 -12 -100 c-10 -78 -11 -101 -1 -107 7 -3 37 -24 67 -45
l55 -39 -3 -120 c-3 -125 -15 -388 -35 -735 l-12 -207 27 14 c15 8 31 14 36
14 10 0 359 -196 375 -210 10 -9 -9 -50 -32 -67 -9 -7 -12 -13 -6 -13 5 0 23
14 40 30 l31 31 81 -46 c91 -52 155 -64 229 -46 64 16 717 394 739 428 24 36
23 87 -1 120 -20 27 -396 253 -420 253 -6 0 -17 -6 -23 -14 -9 -11 8 -25 91
-72 135 -76 183 -107 169 -112 -6 -2 -11 -9 -11 -15 0 -6 -8 -19 -17 -30 -18
-20 -18 -20 10 -2 15 10 31 24 36 32 6 12 19 8 69 -22 68 -40 85 -69 59 -108
-15 -23 -636 -387 -696 -408 -18 -6 -58 -9 -89 -7 -51 4 -80 18 -287 137 -126
73 -245 142 -263 153 l-34 21 101 54 100 54 -6 47 c-5 42 -3 48 14 48 10 0 76
37 145 83 l127 83 -19 49 c-26 66 -25 74 10 89 19 8 32 22 36 39 3 14 7 31 9
38 4 12 -64 58 -72 49 -3 -3 -6 -32 -7 -64 0 -33 -4 -58 -7 -56 -3 1 -18 35
-34 75 -23 59 -25 73 -14 81 11 8 11 9 -2 5 -19 -6 -25 4 -69 123 -35 94 -70
178 -106 257 -13 28 -24 55 -24 60 0 8 -101 77 -173 118 -16 9 -25 21 -21 27
4 7 3 8 -5 4 -6 -4 -19 -2 -28 6 -15 12 28 -73 49 -96 11 -14 10 -36 -2 -36
-5 0 -10 6 -10 13 0 23 -99 167 -116 167 -11 0 -14 -5 -9 -17z"/>
<path d="M3910 2448 c-1 -7 -9 -57 -19 -111 l-18 -98 28 -14 c36 -19 38 -19
33 3 -5 20 58 61 121 78 28 7 41 17 43 31 3 17 -14 31 -86 72 -97 55 -102 57
-102 39z"/>
<path d="M3008 2381 c-32 -76 -33 -87 -15 -94 10 -4 19 16 31 75 10 44 16 81
14 83 -2 2 -15 -27 -30 -64z"/>
<path d="M3530 2446 c0 -3 9 -10 20 -16 11 -6 20 -8 20 -6 0 3 -9 10 -20 16
-11 6 -20 8 -20 6z"/>
<path d="M3461 2414 c0 -11 3 -14 6 -6 3 7 2 16 -1 19 -3 4 -6 -2 -5 -13z"/>
<path d="M3671 2374 c0 -11 3 -14 6 -6 3 7 2 16 -1 19 -3 4 -6 -2 -5 -13z"/>
<path d="M3042 2360 c0 -14 2 -19 5 -12 2 6 2 18 0 25 -3 6 -5 1 -5 -13z"/>
<path d="M3031 2313 c0 -12 -4 -30 -7 -40 -5 -14 -4 -15 5 -7 7 6 11 24 8 40
-3 21 -4 23 -6 7z"/>
<path d="M3661 2294 c0 -11 3 -14 6 -6 3 7 2 16 -1 19 -3 4 -6 -2 -5 -13z"/>
<path d="M3726 2223 c-4 -43 -8 -94 -10 -115 -4 -34 -1 -38 45 -66 42 -27 49
-28 53 -14 7 24 36 182 36 196 0 6 -27 26 -59 44 l-59 32 -6 -77z"/>
<path d="M4551 2250 l-44 -20 6 -46 5 -45 -22 19 c-11 11 -32 23 -46 27 -14 4
-33 15 -44 24 -18 16 -18 13 -14 -92 6 -126 13 -138 111 -177 42 -16 69 -36
98 -70 81 -97 201 -131 339 -96 67 17 120 58 120 93 0 12 -6 9 -25 -11 -36
-39 -90 -58 -180 -63 -126 -7 -160 25 -114 107 26 46 100 100 138 100 l26 1
-29 16 c-38 20 -90 5 -131 -37 -34 -35 -45 -38 -45 -10 0 23 81 80 113 80 10
0 15 5 12 10 -17 27 -101 3 -139 -39 -22 -24 -36 -27 -36 -8 0 19 39 53 86 76
31 15 35 21 22 26 -26 10 -83 -13 -116 -46 -22 -22 -32 -27 -38 -18 -9 16 70
89 97 89 11 0 19 5 19 10 0 14 -56 13 -83 -1 -12 -6 -34 -23 -49 -37 -29 -27
-50 -23 -32 6 15 24 74 62 106 69 26 5 26 6 14 42 -11 31 -18 36 -47 39 -19 1
-54 -7 -78 -18z"/>
<path d="M3622 2230 c0 -14 2 -19 5 -12 2 6 2 18 0 25 -3 6 -5 1 -5 -13z"/>
<path d="M3865 2197 c-2 -12 -11 -60 -20 -107 -17 -97 -24 -85 77 -143 31 -18
48 -23 48 -15 0 7 -7 63 -15 123 -8 61 -15 115 -15 121 0 6 -16 18 -35 27 -34
16 -35 16 -40 -6z"/>
<path d="M3601 2064 c0 -11 3 -14 6 -6 3 7 2 16 -1 19 -3 4 -6 -2 -5 -13z"/>
<path d="M3632 2040 c0 -14 2 -19 5 -12 2 6 2 18 0 25 -3 6 -5 1 -5 -13z"/>
<path d="M3701 1975 c-1 -40 -4 -93 -6 -117 -3 -41 -2 -44 35 -64 l38 -21 20
106 c11 58 18 109 15 114 -2 4 -26 18 -52 31 l-47 24 -3 -73z"/>
<path d="M3807 1878 c-21 -129 -22 -123 9 -136 22 -11 33 -8 95 28 60 36 69
45 69 70 0 47 -9 59 -80 100 -38 22 -70 40 -72 40 -2 0 -11 -46 -21 -102z"/>
<path d="M2253 1870 c-27 -11 -29 -23 -6 -41 14 -13 13 -15 -13 -19 -21 -4
-34 -16 -50 -45 -22 -43 -46 -54 -71 -33 -15 11 -16 11 -8 -7 4 -11 11 -76 15
-145 4 -69 12 -136 18 -150 18 -45 48 -64 100 -62 47 1 132 27 132 41 0 3 -30
25 -65 49 -36 23 -65 49 -65 57 0 13 84 316 97 353 6 14 -50 16 -84 2z"/>
<path d="M3780 1720 c0 -22 1 -23 24 -14 13 5 14 9 5 20 -16 20 -29 17 -29 -6z"/>
<path d="M4210 1445 c-59 -34 -70 -50 -70 -101 0 -87 83 -194 150 -194 33 0
117 45 130 70 11 20 13 70 4 93 -4 12 -16 9 -60 -16 -65 -35 -113 -42 -131
-18 -10 13 -8 20 15 41 34 31 64 93 60 123 -4 32 -44 32 -98 2z"/>
<path d="M2550 1249 c0 -59 24 -113 70 -161 53 -55 78 -60 141 -28 52 27 79
55 79 81 0 20 -1 20 -23 6 -22 -14 -26 -14 -51 2 -20 13 -40 17 -72 13 -34 -4
-45 -1 -50 12 -3 9 -1 23 5 30 10 12 3 20 -33 45 -56 39 -66 39 -66 0z"/>
<path d="M3304 928 c-48 -32 -49 -34 -52 -88 -2 -46 3 -64 28 -108 32 -56 79
-92 119 -92 36 0 119 51 132 82 10 25 5 98 -7 98 -2 0 -23 -12 -47 -27 -87
-55 -187 -36 -118 23 26 22 61 97 61 131 0 25 -65 15 -116 -19z"/>
</g>
</svg>
